<?xml version="1.0" encoding="utf-8" standalone="no"?>
<!DOCTYPE svg PUBLIC "-//W3C//DTD SVG 1.1//EN"
  "http://www.w3.org/Graphics/SVG/1.1/DTD/svg11.dtd">
<svg xmlns:xlink="http://www.w3.org/1999/xlink" width="720pt" height="432pt" viewBox="0 0 720 432" xmlns="http://www.w3.org/2000/svg" version="1.1">
 <metadata>
  <rdf:RDF xmlns:dc="http://purl.org/dc/elements/1.1/" xmlns:cc="http://creativecommons.org/ns#" xmlns:rdf="http://www.w3.org/1999/02/22-rdf-syntax-ns#">
   <cc:Work>
    <dc:type rdf:resource="http://purl.org/dc/dcmitype/StillImage"/>
    <dc:date>2025-10-31T20:29:25.684983</dc:date>
    <dc:format>image/svg+xml</dc:format>
    <dc:creator>
     <cc:Agent>
      <dc:title>Matplotlib v3.10.7, https://matplotlib.org/</dc:title>
     </cc:Agent>
    </dc:creator>
   </cc:Work>
  </rdf:RDF>
 </metadata>
 <defs>
  <style type="text/css">*{stroke-linejoin: round; stroke-linecap: butt}</style>
 </defs>
 <g id="figure_1">
  <g id="patch_1">
   <path d="M 0 432 
L 720 432 
L 720 0 
L 0 0 
z
" style="fill: #ffffff"/>
  </g>
  <g id="axes_1">
   <g id="patch_2">
    <path d="M 50.34 390.66 
L 709.2 390.66 
L 709.2 41.6 
L 50.34 41.6 
z
" style="fill: #f8f9fa"/>
   </g>
   <g id="matplotlib.axis_1">
    <g id="xtick_1">
     <g id="line2d_1">
      <path d="M 80.288182 390.66 
L 80.288182 41.6 
" clip-path="url(#p28f9fcabb1)" style="fill: none; stroke-dasharray: 2.96,1.28; stroke-dashoffset: 0; stroke: #808080; stroke-opacity: 0.7; stroke-width: 0.8"/>
     </g>
     <g id="line2d_2"/>
     <g id="text_1">
      <!-- 0 -->
      <g style="fill: #262626" transform="translate(77.106932 401.758438) scale(0.1 -0.1)">
       <defs>
        <path id="DejaVuSans-30" d="M 2034 4250 
Q 1547 4250 1301 3770 
Q 1056 3291 1056 2328 
Q 1056 1369 1301 889 
Q 1547 409 2034 409 
Q 2525 409 2770 889 
Q 3016 1369 3016 2328 
Q 3016 3291 2770 3770 
Q 2525 4250 2034 4250 
z
M 2034 4750 
Q 2819 4750 3233 4129 
Q 3647 3509 3647 2328 
Q 3647 1150 3233 529 
Q 2819 -91 2034 -91 
Q 1250 -91 836 529 
Q 422 1150 422 2328 
Q 422 3509 836 4129 
Q 1250 4750 2034 4750 
z
" transform="scale(0.015625)"/>
       </defs>
       <use xlink:href="#DejaVuSans-30"/>
      </g>
     </g>
    </g>
    <g id="xtick_2">
     <g id="line2d_3">
      <path d="M 165.87887 390.66 
L 165.87887 41.6 
" clip-path="url(#p28f9fcabb1)" style="fill: none; stroke-dasharray: 2.96,1.28; stroke-dashoffset: 0; stroke: #808080; stroke-opacity: 0.7; stroke-width: 0.8"/>
     </g>
     <g id="line2d_4"/>
     <g id="text_2">
      <!-- 500 -->
      <g style="fill: #262626" transform="translate(156.33512 401.758438) scale(0.1 -0.1)">
       <defs>
        <path id="DejaVuSans-35" d="M 691 4666 
L 3169 4666 
L 3169 4134 
L 1269 4134 
L 1269 2991 
Q 1406 3038 1543 3061 
Q 1681 3084 1819 3084 
Q 2600 3084 3056 2656 
Q 3513 2228 3513 1497 
Q 3513 744 3044 326 
Q 2575 -91 1722 -91 
Q 1428 -91 1123 -41 
Q 819 9 494 109 
L 494 744 
Q 775 591 1075 516 
Q 1375 441 1709 441 
Q 2250 441 2565 725 
Q 2881 1009 2881 1497 
Q 2881 1984 2565 2268 
Q 2250 2553 1709 2553 
Q 1456 2553 1204 2497 
Q 953 2441 691 2322 
L 691 4666 
z
" transform="scale(0.015625)"/>
       </defs>
       <use xlink:href="#DejaVuSans-35"/>
       <use xlink:href="#DejaVuSans-30" transform="translate(63.623047 0)"/>
       <use xlink:href="#DejaVuSans-30" transform="translate(127.246094 0)"/>
      </g>
     </g>
    </g>
    <g id="xtick_3">
     <g id="line2d_5">
      <path d="M 251.469558 390.66 
L 251.469558 41.6 
" clip-path="url(#p28f9fcabb1)" style="fill: none; stroke-dasharray: 2.96,1.28; stroke-dashoffset: 0; stroke: #808080; stroke-opacity: 0.7; stroke-width: 0.8"/>
     </g>
     <g id="line2d_6"/>
     <g id="text_3">
      <!-- 1000 -->
      <g style="fill: #262626" transform="translate(238.744558 401.758438) scale(0.1 -0.1)">
       <defs>
        <path id="DejaVuSans-31" d="M 794 531 
L 1825 531 
L 1825 4091 
L 703 3866 
L 703 4441 
L 1819 4666 
L 2450 4666 
L 2450 531 
L 3481 531 
L 3481 0 
L 794 0 
L 794 531 
z
" transform="scale(0.015625)"/>
       </defs>
       <use xlink:href="#DejaVuSans-31"/>
       <use xlink:href="#DejaVuSans-30" transform="translate(63.623047 0)"/>
       <use xlink:href="#DejaVuSans-30" transform="translate(127.246094 0)"/>
       <use xlink:href="#DejaVuSans-30" transform="translate(190.869141 0)"/>
      </g>
     </g>
    </g>
    <g id="xtick_4">
     <g id="line2d_7">
      <path d="M 337.060247 390.66 
L 337.060247 41.6 
" clip-path="url(#p28f9fcabb1)" style="fill: none; stroke-dasharray: 2.96,1.28; stroke-dashoffset: 0; stroke: #808080; stroke-opacity: 0.7; stroke-width: 0.8"/>
     </g>
     <g id="line2d_8"/>
     <g id="text_4">
      <!-- 1500 -->
      <g style="fill: #262626" transform="translate(324.335247 401.758438) scale(0.1 -0.1)">
       <use xlink:href="#DejaVuSans-31"/>
       <use xlink:href="#DejaVuSans-35" transform="translate(63.623047 0)"/>
       <use xlink:href="#DejaVuSans-30" transform="translate(127.246094 0)"/>
       <use xlink:href="#DejaVuSans-30" transform="translate(190.869141 0)"/>
      </g>
     </g>
    </g>
    <g id="xtick_5">
     <g id="line2d_9">
      <path d="M 422.650935 390.66 
L 422.650935 41.6 
" clip-path="url(#p28f9fcabb1)" style="fill: none; stroke-dasharray: 2.96,1.28; stroke-dashoffset: 0; stroke: #808080; stroke-opacity: 0.7; stroke-width: 0.8"/>
     </g>
     <g id="line2d_10"/>
     <g id="text_5">
      <!-- 2000 -->
      <g style="fill: #262626" transform="translate(409.925935 401.758438) scale(0.1 -0.1)">
       <defs>
        <path id="DejaVuSans-32" d="M 1228 531 
L 3431 531 
L 3431 0 
L 469 0 
L 469 531 
Q 828 903 1448 1529 
Q 2069 2156 2228 2338 
Q 2531 2678 2651 2914 
Q 2772 3150 2772 3378 
Q 2772 3750 2511 3984 
Q 2250 4219 1831 4219 
Q 1534 4219 1204 4116 
Q 875 4013 500 3803 
L 500 4441 
Q 881 4594 1212 4672 
Q 1544 4750 1819 4750 
Q 2544 4750 2975 4387 
Q 3406 4025 3406 3419 
Q 3406 3131 3298 2873 
Q 3191 2616 2906 2266 
Q 2828 2175 2409 1742 
Q 1991 1309 1228 531 
z
" transform="scale(0.015625)"/>
       </defs>
       <use xlink:href="#DejaVuSans-32"/>
       <use xlink:href="#DejaVuSans-30" transform="translate(63.623047 0)"/>
       <use xlink:href="#DejaVuSans-30" transform="translate(127.246094 0)"/>
       <use xlink:href="#DejaVuSans-30" transform="translate(190.869141 0)"/>
      </g>
     </g>
    </g>
    <g id="xtick_6">
     <g id="line2d_11">
      <path d="M 508.241623 390.66 
L 508.241623 41.6 
" clip-path="url(#p28f9fcabb1)" style="fill: none; stroke-dasharray: 2.96,1.28; stroke-dashoffset: 0; stroke: #808080; stroke-opacity: 0.7; stroke-width: 0.8"/>
     </g>
     <g id="line2d_12"/>
     <g id="text_6">
      <!-- 2500 -->
      <g style="fill: #262626" transform="translate(495.516623 401.758438) scale(0.1 -0.1)">
       <use xlink:href="#DejaVuSans-32"/>
       <use xlink:href="#DejaVuSans-35" transform="translate(63.623047 0)"/>
       <use xlink:href="#DejaVuSans-30" transform="translate(127.246094 0)"/>
       <use xlink:href="#DejaVuSans-30" transform="translate(190.869141 0)"/>
      </g>
     </g>
    </g>
    <g id="xtick_7">
     <g id="line2d_13">
      <path d="M 593.832311 390.66 
L 593.832311 41.6 
" clip-path="url(#p28f9fcabb1)" style="fill: none; stroke-dasharray: 2.96,1.28; stroke-dashoffset: 0; stroke: #808080; stroke-opacity: 0.7; stroke-width: 0.8"/>
     </g>
     <g id="line2d_14"/>
     <g id="text_7">
      <!-- 3000 -->
      <g style="fill: #262626" transform="translate(581.107311 401.758438) scale(0.1 -0.1)">
       <defs>
        <path id="DejaVuSans-33" d="M 2597 2516 
Q 3050 2419 3304 2112 
Q 3559 1806 3559 1356 
Q 3559 666 3084 287 
Q 2609 -91 1734 -91 
Q 1441 -91 1130 -33 
Q 819 25 488 141 
L 488 750 
Q 750 597 1062 519 
Q 1375 441 1716 441 
Q 2309 441 2620 675 
Q 2931 909 2931 1356 
Q 2931 1769 2642 2001 
Q 2353 2234 1838 2234 
L 1294 2234 
L 1294 2753 
L 1863 2753 
Q 2328 2753 2575 2939 
Q 2822 3125 2822 3475 
Q 2822 3834 2567 4026 
Q 2313 4219 1838 4219 
Q 1578 4219 1281 4162 
Q 984 4106 628 3988 
L 628 4550 
Q 988 4650 1302 4700 
Q 1616 4750 1894 4750 
Q 2613 4750 3031 4423 
Q 3450 4097 3450 3541 
Q 3450 3153 3228 2886 
Q 3006 2619 2597 2516 
z
" transform="scale(0.015625)"/>
       </defs>
       <use xlink:href="#DejaVuSans-33"/>
       <use xlink:href="#DejaVuSans-30" transform="translate(63.623047 0)"/>
       <use xlink:href="#DejaVuSans-30" transform="translate(127.246094 0)"/>
       <use xlink:href="#DejaVuSans-30" transform="translate(190.869141 0)"/>
      </g>
     </g>
    </g>
    <g id="xtick_8">
     <g id="line2d_15">
      <path d="M 679.423 390.66 
L 679.423 41.6 
" clip-path="url(#p28f9fcabb1)" style="fill: none; stroke-dasharray: 2.96,1.28; stroke-dashoffset: 0; stroke: #808080; stroke-opacity: 0.7; stroke-width: 0.8"/>
     </g>
     <g id="line2d_16"/>
     <g id="text_8">
      <!-- 3500 -->
      <g style="fill: #262626" transform="translate(666.698 401.758438) scale(0.1 -0.1)">
       <use xlink:href="#DejaVuSans-33"/>
       <use xlink:href="#DejaVuSans-35" transform="translate(63.623047 0)"/>
       <use xlink:href="#DejaVuSans-30" transform="translate(127.246094 0)"/>
       <use xlink:href="#DejaVuSans-30" transform="translate(190.869141 0)"/>
      </g>
     </g>
    </g>
    <g id="text_9">
     <!-- Training Steps -->
     <g style="fill: #262626" transform="translate(331.165312 416.95625) scale(0.12 -0.12)">
      <defs>
       <path id="DejaVuSans-Bold-54" d="M 31 4666 
L 4331 4666 
L 4331 3756 
L 2784 3756 
L 2784 0 
L 1581 0 
L 1581 3756 
L 31 3756 
L 31 4666 
z
" transform="scale(0.015625)"/>
       <path id="DejaVuSans-Bold-72" d="M 3138 2547 
Q 2991 2616 2845 2648 
Q 2700 2681 2553 2681 
Q 2122 2681 1889 2404 
Q 1656 2128 1656 1613 
L 1656 0 
L 538 0 
L 538 3500 
L 1656 3500 
L 1656 2925 
Q 1872 3269 2151 3426 
Q 2431 3584 2822 3584 
Q 2878 3584 2943 3579 
Q 3009 3575 3134 3559 
L 3138 2547 
z
" transform="scale(0.015625)"/>
       <path id="DejaVuSans-Bold-61" d="M 2106 1575 
Q 1756 1575 1579 1456 
Q 1403 1338 1403 1106 
Q 1403 894 1545 773 
Q 1688 653 1941 653 
Q 2256 653 2472 879 
Q 2688 1106 2688 1447 
L 2688 1575 
L 2106 1575 
z
M 3816 1997 
L 3816 0 
L 2688 0 
L 2688 519 
Q 2463 200 2181 54 
Q 1900 -91 1497 -91 
Q 953 -91 614 226 
Q 275 544 275 1050 
Q 275 1666 698 1953 
Q 1122 2241 2028 2241 
L 2688 2241 
L 2688 2328 
Q 2688 2594 2478 2717 
Q 2269 2841 1825 2841 
Q 1466 2841 1156 2769 
Q 847 2697 581 2553 
L 581 3406 
Q 941 3494 1303 3539 
Q 1666 3584 2028 3584 
Q 2975 3584 3395 3211 
Q 3816 2838 3816 1997 
z
" transform="scale(0.015625)"/>
       <path id="DejaVuSans-Bold-69" d="M 538 3500 
L 1656 3500 
L 1656 0 
L 538 0 
L 538 3500 
z
M 538 4863 
L 1656 4863 
L 1656 3950 
L 538 3950 
L 538 4863 
z
" transform="scale(0.015625)"/>
       <path id="DejaVuSans-Bold-6e" d="M 4056 2131 
L 4056 0 
L 2931 0 
L 2931 347 
L 2931 1631 
Q 2931 2084 2911 2256 
Q 2891 2428 2841 2509 
Q 2775 2619 2662 2680 
Q 2550 2741 2406 2741 
Q 2056 2741 1856 2470 
Q 1656 2200 1656 1722 
L 1656 0 
L 538 0 
L 538 3500 
L 1656 3500 
L 1656 2988 
Q 1909 3294 2193 3439 
Q 2478 3584 2822 3584 
Q 3428 3584 3742 3212 
Q 4056 2841 4056 2131 
z
" transform="scale(0.015625)"/>
       <path id="DejaVuSans-Bold-67" d="M 2919 594 
Q 2688 288 2409 144 
Q 2131 0 1766 0 
Q 1125 0 706 504 
Q 288 1009 288 1791 
Q 288 2575 706 3076 
Q 1125 3578 1766 3578 
Q 2131 3578 2409 3434 
Q 2688 3291 2919 2981 
L 2919 3500 
L 4044 3500 
L 4044 353 
Q 4044 -491 3511 -936 
Q 2978 -1381 1966 -1381 
Q 1638 -1381 1331 -1331 
Q 1025 -1281 716 -1178 
L 716 -306 
Q 1009 -475 1290 -558 
Q 1572 -641 1856 -641 
Q 2406 -641 2662 -400 
Q 2919 -159 2919 353 
L 2919 594 
z
M 2181 2772 
Q 1834 2772 1640 2515 
Q 1447 2259 1447 1791 
Q 1447 1309 1634 1061 
Q 1822 813 2181 813 
Q 2531 813 2725 1069 
Q 2919 1325 2919 1791 
Q 2919 2259 2725 2515 
Q 2531 2772 2181 2772 
z
" transform="scale(0.015625)"/>
       <path id="DejaVuSans-Bold-20" transform="scale(0.015625)"/>
       <path id="DejaVuSans-Bold-53" d="M 3834 4519 
L 3834 3531 
Q 3450 3703 3084 3790 
Q 2719 3878 2394 3878 
Q 1963 3878 1756 3759 
Q 1550 3641 1550 3391 
Q 1550 3203 1689 3098 
Q 1828 2994 2194 2919 
L 2706 2816 
Q 3484 2659 3812 2340 
Q 4141 2022 4141 1434 
Q 4141 663 3683 286 
Q 3225 -91 2284 -91 
Q 1841 -91 1394 -6 
Q 947 78 500 244 
L 500 1259 
Q 947 1022 1364 901 
Q 1781 781 2169 781 
Q 2563 781 2772 912 
Q 2981 1044 2981 1288 
Q 2981 1506 2839 1625 
Q 2697 1744 2272 1838 
L 1806 1941 
Q 1106 2091 782 2419 
Q 459 2747 459 3303 
Q 459 4000 909 4375 
Q 1359 4750 2203 4750 
Q 2588 4750 2994 4692 
Q 3400 4634 3834 4519 
z
" transform="scale(0.015625)"/>
       <path id="DejaVuSans-Bold-74" d="M 1759 4494 
L 1759 3500 
L 2913 3500 
L 2913 2700 
L 1759 2700 
L 1759 1216 
Q 1759 972 1856 886 
Q 1953 800 2241 800 
L 2816 800 
L 2816 0 
L 1856 0 
Q 1194 0 917 276 
Q 641 553 641 1216 
L 641 2700 
L 84 2700 
L 84 3500 
L 641 3500 
L 641 4494 
L 1759 4494 
z
" transform="scale(0.015625)"/>
       <path id="DejaVuSans-Bold-65" d="M 4031 1759 
L 4031 1441 
L 1416 1441 
Q 1456 1047 1700 850 
Q 1944 653 2381 653 
Q 2734 653 3104 758 
Q 3475 863 3866 1075 
L 3866 213 
Q 3469 63 3072 -14 
Q 2675 -91 2278 -91 
Q 1328 -91 801 392 
Q 275 875 275 1747 
Q 275 2603 792 3093 
Q 1309 3584 2216 3584 
Q 3041 3584 3536 3087 
Q 4031 2591 4031 1759 
z
M 2881 2131 
Q 2881 2450 2695 2645 
Q 2509 2841 2209 2841 
Q 1884 2841 1681 2658 
Q 1478 2475 1428 2131 
L 2881 2131 
z
" transform="scale(0.015625)"/>
       <path id="DejaVuSans-Bold-70" d="M 1656 506 
L 1656 -1331 
L 538 -1331 
L 538 3500 
L 1656 3500 
L 1656 2988 
Q 1888 3294 2169 3439 
Q 2450 3584 2816 3584 
Q 3463 3584 3878 3070 
Q 4294 2556 4294 1747 
Q 4294 938 3878 423 
Q 3463 -91 2816 -91 
Q 2450 -91 2169 54 
Q 1888 200 1656 506 
z
M 2400 2772 
Q 2041 2772 1848 2508 
Q 1656 2244 1656 1747 
Q 1656 1250 1848 986 
Q 2041 722 2400 722 
Q 2759 722 2948 984 
Q 3138 1247 3138 1747 
Q 3138 2247 2948 2509 
Q 2759 2772 2400 2772 
z
" transform="scale(0.015625)"/>
       <path id="DejaVuSans-Bold-73" d="M 3272 3391 
L 3272 2541 
Q 2913 2691 2578 2766 
Q 2244 2841 1947 2841 
Q 1628 2841 1473 2761 
Q 1319 2681 1319 2516 
Q 1319 2381 1436 2309 
Q 1553 2238 1856 2203 
L 2053 2175 
Q 2913 2066 3209 1816 
Q 3506 1566 3506 1031 
Q 3506 472 3093 190 
Q 2681 -91 1863 -91 
Q 1516 -91 1145 -36 
Q 775 19 384 128 
L 384 978 
Q 719 816 1070 734 
Q 1422 653 1784 653 
Q 2113 653 2278 743 
Q 2444 834 2444 1013 
Q 2444 1163 2330 1236 
Q 2216 1309 1875 1350 
L 1678 1375 
Q 931 1469 631 1722 
Q 331 1975 331 2491 
Q 331 3047 712 3315 
Q 1094 3584 1881 3584 
Q 2191 3584 2531 3537 
Q 2872 3491 3272 3391 
z
" transform="scale(0.015625)"/>
      </defs>
      <use xlink:href="#DejaVuSans-Bold-54"/>
      <use xlink:href="#DejaVuSans-Bold-72" transform="translate(57.212891 0)"/>
      <use xlink:href="#DejaVuSans-Bold-61" transform="translate(106.529297 0)"/>
      <use xlink:href="#DejaVuSans-Bold-69" transform="translate(174.009766 0)"/>
      <use xlink:href="#DejaVuSans-Bold-6e" transform="translate(208.287109 0)"/>
      <use xlink:href="#DejaVuSans-Bold-69" transform="translate(279.478516 0)"/>
      <use xlink:href="#DejaVuSans-Bold-6e" transform="translate(313.755859 0)"/>
      <use xlink:href="#DejaVuSans-Bold-67" transform="translate(384.947266 0)"/>
      <use xlink:href="#DejaVuSans-Bold-20" transform="translate(456.529297 0)"/>
      <use xlink:href="#DejaVuSans-Bold-53" transform="translate(491.34375 0)"/>
      <use xlink:href="#DejaVuSans-Bold-74" transform="translate(563.365234 0)"/>
      <use xlink:href="#DejaVuSans-Bold-65" transform="translate(611.167969 0)"/>
      <use xlink:href="#DejaVuSans-Bold-70" transform="translate(678.990234 0)"/>
      <use xlink:href="#DejaVuSans-Bold-73" transform="translate(750.572266 0)"/>
     </g>
    </g>
   </g>
   <g id="matplotlib.axis_2">
    <g id="ytick_1">
     <g id="line2d_17">
      <path d="M 50.34 355.493435 
L 709.2 355.493435 
" clip-path="url(#p28f9fcabb1)" style="fill: none; stroke-dasharray: 2.96,1.28; stroke-dashoffset: 0; stroke: #808080; stroke-opacity: 0.7; stroke-width: 0.8"/>
     </g>
     <g id="line2d_18"/>
     <g id="text_10">
      <!-- 40 -->
      <g style="fill: #262626" transform="translate(34.115 359.292653) scale(0.1 -0.1)">
       <defs>
        <path id="DejaVuSans-34" d="M 2419 4116 
L 825 1625 
L 2419 1625 
L 2419 4116 
z
M 2253 4666 
L 3047 4666 
L 3047 1625 
L 3713 1625 
L 3713 1100 
L 3047 1100 
L 3047 0 
L 2419 0 
L 2419 1100 
L 313 1100 
L 313 1709 
L 2253 4666 
z
" transform="scale(0.015625)"/>
       </defs>
       <use xlink:href="#DejaVuSans-34"/>
       <use xlink:href="#DejaVuSans-30" transform="translate(63.623047 0)"/>
      </g>
     </g>
    </g>
    <g id="ytick_2">
     <g id="line2d_19">
      <path d="M 50.34 316.279346 
L 709.2 316.279346 
" clip-path="url(#p28f9fcabb1)" style="fill: none; stroke-dasharray: 2.96,1.28; stroke-dashoffset: 0; stroke: #808080; stroke-opacity: 0.7; stroke-width: 0.8"/>
     </g>
     <g id="line2d_20"/>
     <g id="text_11">
      <!-- 60 -->
      <g style="fill: #262626" transform="translate(34.115 320.078565) scale(0.1 -0.1)">
       <defs>
        <path id="DejaVuSans-36" d="M 2113 2584 
Q 1688 2584 1439 2293 
Q 1191 2003 1191 1497 
Q 1191 994 1439 701 
Q 1688 409 2113 409 
Q 2538 409 2786 701 
Q 3034 994 3034 1497 
Q 3034 2003 2786 2293 
Q 2538 2584 2113 2584 
z
M 3366 4563 
L 3366 3988 
Q 3128 4100 2886 4159 
Q 2644 4219 2406 4219 
Q 1781 4219 1451 3797 
Q 1122 3375 1075 2522 
Q 1259 2794 1537 2939 
Q 1816 3084 2150 3084 
Q 2853 3084 3261 2657 
Q 3669 2231 3669 1497 
Q 3669 778 3244 343 
Q 2819 -91 2113 -91 
Q 1303 -91 875 529 
Q 447 1150 447 2328 
Q 447 3434 972 4092 
Q 1497 4750 2381 4750 
Q 2619 4750 2861 4703 
Q 3103 4656 3366 4563 
z
" transform="scale(0.015625)"/>
       </defs>
       <use xlink:href="#DejaVuSans-36"/>
       <use xlink:href="#DejaVuSans-30" transform="translate(63.623047 0)"/>
      </g>
     </g>
    </g>
    <g id="ytick_3">
     <g id="line2d_21">
      <path d="M 50.34 277.065258 
L 709.2 277.065258 
" clip-path="url(#p28f9fcabb1)" style="fill: none; stroke-dasharray: 2.96,1.28; stroke-dashoffset: 0; stroke: #808080; stroke-opacity: 0.7; stroke-width: 0.8"/>
     </g>
     <g id="line2d_22"/>
     <g id="text_12">
      <!-- 80 -->
      <g style="fill: #262626" transform="translate(34.115 280.864477) scale(0.1 -0.1)">
       <defs>
        <path id="DejaVuSans-38" d="M 2034 2216 
Q 1584 2216 1326 1975 
Q 1069 1734 1069 1313 
Q 1069 891 1326 650 
Q 1584 409 2034 409 
Q 2484 409 2743 651 
Q 3003 894 3003 1313 
Q 3003 1734 2745 1975 
Q 2488 2216 2034 2216 
z
M 1403 2484 
Q 997 2584 770 2862 
Q 544 3141 544 3541 
Q 544 4100 942 4425 
Q 1341 4750 2034 4750 
Q 2731 4750 3128 4425 
Q 3525 4100 3525 3541 
Q 3525 3141 3298 2862 
Q 3072 2584 2669 2484 
Q 3125 2378 3379 2068 
Q 3634 1759 3634 1313 
Q 3634 634 3220 271 
Q 2806 -91 2034 -91 
Q 1263 -91 848 271 
Q 434 634 434 1313 
Q 434 1759 690 2068 
Q 947 2378 1403 2484 
z
M 1172 3481 
Q 1172 3119 1398 2916 
Q 1625 2713 2034 2713 
Q 2441 2713 2670 2916 
Q 2900 3119 2900 3481 
Q 2900 3844 2670 4047 
Q 2441 4250 2034 4250 
Q 1625 4250 1398 4047 
Q 1172 3844 1172 3481 
z
" transform="scale(0.015625)"/>
       </defs>
       <use xlink:href="#DejaVuSans-38"/>
       <use xlink:href="#DejaVuSans-30" transform="translate(63.623047 0)"/>
      </g>
     </g>
    </g>
    <g id="ytick_4">
     <g id="line2d_23">
      <path d="M 50.34 237.85117 
L 709.2 237.85117 
" clip-path="url(#p28f9fcabb1)" style="fill: none; stroke-dasharray: 2.96,1.28; stroke-dashoffset: 0; stroke: #808080; stroke-opacity: 0.7; stroke-width: 0.8"/>
     </g>
     <g id="line2d_24"/>
     <g id="text_13">
      <!-- 100 -->
      <g style="fill: #262626" transform="translate(27.7525 241.650389) scale(0.1 -0.1)">
       <use xlink:href="#DejaVuSans-31"/>
       <use xlink:href="#DejaVuSans-30" transform="translate(63.623047 0)"/>
       <use xlink:href="#DejaVuSans-30" transform="translate(127.246094 0)"/>
      </g>
     </g>
    </g>
    <g id="ytick_5">
     <g id="line2d_25">
      <path d="M 50.34 198.637082 
L 709.2 198.637082 
" clip-path="url(#p28f9fcabb1)" style="fill: none; stroke-dasharray: 2.96,1.28; stroke-dashoffset: 0; stroke: #808080; stroke-opacity: 0.7; stroke-width: 0.8"/>
     </g>
     <g id="line2d_26"/>
     <g id="text_14">
      <!-- 120 -->
      <g style="fill: #262626" transform="translate(27.7525 202.4363) scale(0.1 -0.1)">
       <use xlink:href="#DejaVuSans-31"/>
       <use xlink:href="#DejaVuSans-32" transform="translate(63.623047 0)"/>
       <use xlink:href="#DejaVuSans-30" transform="translate(127.246094 0)"/>
      </g>
     </g>
    </g>
    <g id="ytick_6">
     <g id="line2d_27">
      <path d="M 50.34 159.422993 
L 709.2 159.422993 
" clip-path="url(#p28f9fcabb1)" style="fill: none; stroke-dasharray: 2.96,1.28; stroke-dashoffset: 0; stroke: #808080; stroke-opacity: 0.7; stroke-width: 0.8"/>
     </g>
     <g id="line2d_28"/>
     <g id="text_15">
      <!-- 140 -->
      <g style="fill: #262626" transform="translate(27.7525 163.222212) scale(0.1 -0.1)">
       <use xlink:href="#DejaVuSans-31"/>
       <use xlink:href="#DejaVuSans-34" transform="translate(63.623047 0)"/>
       <use xlink:href="#DejaVuSans-30" transform="translate(127.246094 0)"/>
      </g>
     </g>
    </g>
    <g id="ytick_7">
     <g id="line2d_29">
      <path d="M 50.34 120.208905 
L 709.2 120.208905 
" clip-path="url(#p28f9fcabb1)" style="fill: none; stroke-dasharray: 2.96,1.28; stroke-dashoffset: 0; stroke: #808080; stroke-opacity: 0.7; stroke-width: 0.8"/>
     </g>
     <g id="line2d_30"/>
     <g id="text_16">
      <!-- 160 -->
      <g style="fill: #262626" transform="translate(27.7525 124.008124) scale(0.1 -0.1)">
       <use xlink:href="#DejaVuSans-31"/>
       <use xlink:href="#DejaVuSans-36" transform="translate(63.623047 0)"/>
       <use xlink:href="#DejaVuSans-30" transform="translate(127.246094 0)"/>
      </g>
     </g>
    </g>
    <g id="ytick_8">
     <g id="line2d_31">
      <path d="M 50.34 80.994817 
L 709.2 80.994817 
" clip-path="url(#p28f9fcabb1)" style="fill: none; stroke-dasharray: 2.96,1.28; stroke-dashoffset: 0; stroke: #808080; stroke-opacity: 0.7; stroke-width: 0.8"/>
     </g>
     <g id="line2d_32"/>
     <g id="text_17">
      <!-- 180 -->
      <g style="fill: #262626" transform="translate(27.7525 84.794035) scale(0.1 -0.1)">
       <use xlink:href="#DejaVuSans-31"/>
       <use xlink:href="#DejaVuSans-38" transform="translate(63.623047 0)"/>
       <use xlink:href="#DejaVuSans-30" transform="translate(127.246094 0)"/>
      </g>
     </g>
    </g>
    <g id="ytick_9">
     <g id="line2d_33">
      <path d="M 50.34 41.780728 
L 709.2 41.780728 
" clip-path="url(#p28f9fcabb1)" style="fill: none; stroke-dasharray: 2.96,1.28; stroke-dashoffset: 0; stroke: #808080; stroke-opacity: 0.7; stroke-width: 0.8"/>
     </g>
     <g id="line2d_34"/>
     <g id="text_18">
      <!-- 200 -->
      <g style="fill: #262626" transform="translate(27.7525 45.579947) scale(0.1 -0.1)">
       <use xlink:href="#DejaVuSans-32"/>
       <use xlink:href="#DejaVuSans-30" transform="translate(63.623047 0)"/>
       <use xlink:href="#DejaVuSans-30" transform="translate(127.246094 0)"/>
      </g>
     </g>
    </g>
    <g id="text_19">
     <!-- Loss Value -->
     <g style="fill: #262626" transform="translate(21.256875 252.06625) rotate(-90) scale(0.12 -0.12)">
      <defs>
       <path id="DejaVuSans-Bold-4c" d="M 588 4666 
L 1791 4666 
L 1791 909 
L 3903 909 
L 3903 0 
L 588 0 
L 588 4666 
z
" transform="scale(0.015625)"/>
       <path id="DejaVuSans-Bold-6f" d="M 2203 2784 
Q 1831 2784 1636 2517 
Q 1441 2250 1441 1747 
Q 1441 1244 1636 976 
Q 1831 709 2203 709 
Q 2569 709 2762 976 
Q 2956 1244 2956 1747 
Q 2956 2250 2762 2517 
Q 2569 2784 2203 2784 
z
M 2203 3584 
Q 3106 3584 3614 3096 
Q 4122 2609 4122 1747 
Q 4122 884 3614 396 
Q 3106 -91 2203 -91 
Q 1297 -91 786 396 
Q 275 884 275 1747 
Q 275 2609 786 3096 
Q 1297 3584 2203 3584 
z
" transform="scale(0.015625)"/>
       <path id="DejaVuSans-Bold-56" d="M 31 4666 
L 1241 4666 
L 2478 1222 
L 3713 4666 
L 4922 4666 
L 3194 0 
L 1759 0 
L 31 4666 
z
" transform="scale(0.015625)"/>
       <path id="DejaVuSans-Bold-6c" d="M 538 4863 
L 1656 4863 
L 1656 0 
L 538 0 
L 538 4863 
z
" transform="scale(0.015625)"/>
       <path id="DejaVuSans-Bold-75" d="M 500 1363 
L 500 3500 
L 1625 3500 
L 1625 3150 
Q 1625 2866 1622 2436 
Q 1619 2006 1619 1863 
Q 1619 1441 1641 1255 
Q 1663 1069 1716 984 
Q 1784 875 1895 815 
Q 2006 756 2150 756 
Q 2500 756 2700 1025 
Q 2900 1294 2900 1772 
L 2900 3500 
L 4019 3500 
L 4019 0 
L 2900 0 
L 2900 506 
Q 2647 200 2364 54 
Q 2081 -91 1741 -91 
Q 1134 -91 817 281 
Q 500 653 500 1363 
z
" transform="scale(0.015625)"/>
      </defs>
      <use xlink:href="#DejaVuSans-Bold-4c"/>
      <use xlink:href="#DejaVuSans-Bold-6f" transform="translate(63.720703 0)"/>
      <use xlink:href="#DejaVuSans-Bold-73" transform="translate(132.421875 0)"/>
      <use xlink:href="#DejaVuSans-Bold-73" transform="translate(191.943359 0)"/>
      <use xlink:href="#DejaVuSans-Bold-20" transform="translate(251.464844 0)"/>
      <use xlink:href="#DejaVuSans-Bold-56" transform="translate(286.279297 0)"/>
      <use xlink:href="#DejaVuSans-Bold-61" transform="translate(358.171875 0)"/>
      <use xlink:href="#DejaVuSans-Bold-6c" transform="translate(425.652344 0)"/>
      <use xlink:href="#DejaVuSans-Bold-75" transform="translate(459.929688 0)"/>
      <use xlink:href="#DejaVuSans-Bold-65" transform="translate(531.121094 0)"/>
     </g>
    </g>
   </g>
   <g id="line2d_35">
    <path d="M 80.288182 220.57674 
L 80.972907 231.883267 
L 81.999996 254.220266 
L 82.684721 266.71307 
L 83.027084 269.041108 
L 83.198265 268.931234 
L 83.540628 266.958966 
L 83.882991 264.803032 
L 84.054172 264.287994 
L 84.225353 264.238285 
L 84.396535 264.594234 
L 84.910079 266.914583 
L 85.423623 268.828286 
L 85.765986 269.214198 
L 86.108349 269.064204 
L 86.793074 268.536496 
L 87.135437 268.568209 
L 87.648981 268.936499 
L 88.162525 269.289487 
L 88.676069 269.347602 
L 89.703158 269.224206 
L 91.586153 269.486137 
L 92.955604 269.58204 
L 102.199398 270.525383 
L 104.595937 270.813942 
L 112.812643 271.470417 
L 118.119266 272.680255 
L 118.975173 273.152406 
L 120.858168 274.693152 
L 122.3988 275.892309 
L 123.939433 276.858226 
L 127.191879 278.464432 
L 128.56133 279.347371 
L 129.930781 280.317028 
L 131.300232 280.981192 
L 135.922129 282.499948 
L 140.030482 284.766743 
L 141.05757 285.684447 
L 142.940566 287.59468 
L 144.652379 288.828019 
L 146.706556 290.204186 
L 149.274277 291.421114 
L 152.526723 293.827866 
L 153.724992 294.413435 
L 155.265625 294.994353 
L 156.977438 295.882498 
L 158.518071 296.827711 
L 160.229885 297.546715 
L 161.256973 298.215068 
L 163.139968 299.906211 
L 167.419502 304.595091 
L 170.158404 307.138956 
L 171.527855 308.344681 
L 174.780302 310.371436 
L 175.978571 311.281885 
L 178.546292 312.55316 
L 182.654645 313.987091 
L 186.762998 315.148238 
L 187.790086 315.622273 
L 189.159537 316.13755 
L 190.357807 316.833996 
L 193.610253 319.015076 
L 196.006792 321.312208 
L 197.889787 322.911107 
L 200.115145 324.324574 
L 204.737043 326.61576 
L 205.592949 327.056003 
L 206.106494 327.258952 
L 207.304763 327.780908 
L 208.503033 328.049856 
L 209.701302 328.309589 
L 210.557209 328.665822 
L 212.440204 329.558537 
L 213.980837 329.889587 
L 215.350288 330.279224 
L 216.206195 330.706041 
L 219.458641 333.022201 
L 223.224631 334.963309 
L 224.594082 335.687421 
L 225.792352 336.075682 
L 231.612519 337.038076 
L 233.153151 337.632119 
L 235.378509 338.322888 
L 237.432685 338.932489 
L 238.288592 339.070404 
L 240.342769 339.623407 
L 241.541038 339.907935 
L 244.622303 340.467797 
L 247.018843 341.175761 
L 249.2442 341.681061 
L 250.100107 342.082111 
L 250.956014 342.78582 
L 251.811921 343.483963 
L 252.496647 343.654899 
L 253.523735 343.958664 
L 254.893186 344.377202 
L 256.262637 344.903242 
L 257.460906 345.25124 
L 260.37099 345.858104 
L 261.56926 346.181764 
L 270.29951 347.323718 
L 274.0655 348.221235 
L 275.26377 348.91169 
L 276.119677 349.410018 
L 277.489128 349.988864 
L 280.399211 350.60225 
L 281.597481 350.838991 
L 284.336383 351.347117 
L 285.192289 351.658751 
L 288.615917 353.246408 
L 290.156549 353.836764 
L 292.210726 354.138749 
L 295.120809 354.731491 
L 296.661442 355.017298 
L 299.057981 355.715613 
L 300.427432 356.143792 
L 302.310427 356.916633 
L 308.986501 358.012925 
L 310.869496 358.262164 
L 312.410128 358.673312 
L 313.608398 358.989956 
L 317.032026 359.330804 
L 318.230295 359.55851 
L 319.428565 359.772363 
L 323.708099 360.16559 
L 326.789364 360.354358 
L 329.357085 360.604076 
L 331.753624 360.876561 
L 334.492526 361.284709 
L 340.997418 361.474846 
L 353.322477 361.759014 
L 364.620448 361.908088 
L 373.52188 362.300941 
L 377.28787 362.489933 
L 380.026772 362.607413 
L 384.819851 362.820691 
L 399.370268 363.555095 
L 406.217523 363.834207 
L 409.983513 363.946774 
L 412.722415 364.319492 
L 413.920685 364.632299 
L 414.947773 364.803415 
L 417.686675 365.180501 
L 419.227307 365.501012 
L 421.110302 366.130397 
L 422.993298 366.220188 
L 424.53393 366.313936 
L 429.49819 366.443653 
L 432.408273 366.617349 
L 433.26418 366.842347 
L 434.120087 367.093613 
L 438.913166 367.635054 
L 440.453798 367.707456 
L 444.219788 368.236817 
L 445.931602 368.366391 
L 450.553499 368.660657 
L 460.482019 369.355023 
L 462.878558 369.545227 
L 468.356362 370.025343 
L 471.608808 370.305518 
L 473.834166 370.376782 
L 479.825515 370.57457 
L 489.411672 370.925223 
L 511.836432 371.338993 
L 515.431241 371.385182 
L 528.612207 371.529611 
L 534.603555 371.628075 
L 537.856001 371.721483 
L 542.64908 372.01113 
L 548.811609 372.06797 
L 552.748781 372.15781 
L 556.001227 372.215769 
L 559.938399 372.349065 
L 563.190845 372.530558 
L 579.795438 372.878882 
L 596.913576 373.177583 
L 599.481297 373.286021 
L 601.877836 373.566364 
L 626.185591 374.202102 
L 630.807489 374.431225 
L 647.754445 374.620658 
L 656.827058 374.672158 
L 679.251818 374.792653 
L 679.251818 374.792653 
" clip-path="url(#p28f9fcabb1)" style="fill: none; stroke: #2e86c1; stroke-opacity: 0.9; stroke-width: 2; stroke-linecap: round"/>
   </g>
   <g id="line2d_36">
    <path d="M 80.288182 198.637082 
L 117.263359 198.637082 
L 117.434541 194.715673 
L 118.803992 194.715673 
L 118.975173 200.597786 
L 124.79534 200.597786 
L 124.966521 202.55849 
L 128.903693 202.55849 
L 129.074874 204.519195 
L 142.427021 204.519195 
L 142.598203 208.440604 
L 145.337105 208.440604 
L 145.508286 210.401308 
L 149.103095 210.401308 
L 149.274277 212.362012 
L 152.869085 212.362012 
L 153.040267 204.519195 
L 153.211448 206.479899 
L 154.067355 206.479899 
L 154.238536 214.322717 
L 154.409718 214.322717 
L 154.580899 216.283421 
L 158.175708 216.283421 
L 158.34689 214.322717 
L 158.518071 214.322717 
L 158.689252 210.401308 
L 159.202796 210.401308 
L 159.373978 206.479899 
L 159.545159 214.322717 
L 159.887522 214.322717 
L 160.058703 220.20483 
L 160.229885 63.348477 
L 160.401066 63.348477 
L 160.572247 57.466364 
L 160.743429 57.466364 
L 160.91461 65.309181 
L 161.085792 65.309181 
L 161.256973 73.151999 
L 161.599336 73.151999 
L 161.770517 77.073408 
L 162.11288 77.073408 
L 162.284061 75.112703 
L 162.455243 222.165534 
L 163.653512 222.165534 
L 163.824694 214.322717 
L 164.509419 214.322717 
L 164.6806 220.20483 
L 166.050051 220.20483 
L 166.221233 69.23059 
L 168.104228 69.23059 
L 168.275409 63.348477 
L 169.473679 63.348477 
L 169.64486 65.309181 
L 170.329586 65.309181 
L 170.500767 73.151999 
L 170.84313 73.151999 
L 171.014311 57.466364 
L 171.356674 57.466364 
L 171.527855 61.387772 
L 172.0414 61.387772 
L 172.212581 57.466364 
L 172.726125 57.466364 
L 172.897307 73.151999 
L 173.239669 73.151999 
L 173.410851 82.955521 
L 173.753213 82.955521 
L 173.924395 90.798339 
L 175.293846 90.798339 
L 175.465027 94.719748 
L 175.636209 88.837634 
L 175.978571 88.837634 
L 176.149753 84.916225 
L 176.492115 84.916225 
L 176.663297 71.191295 
L 176.834478 98.641156 
L 177.861566 98.641156 
L 178.032748 100.601861 
L 178.203929 106.483974 
L 178.375111 106.483974 
L 178.546292 120.208905 
L 184.53764 120.208905 
L 184.708821 108.444678 
L 184.880003 108.444678 
L 185.051184 120.208905 
L 186.420635 120.208905 
L 186.591817 110.405383 
L 186.762998 118.2482 
L 187.447724 118.2482 
L 187.618905 230.008352 
L 188.474812 230.008352 
L 188.645993 231.969057 
L 188.988356 231.969057 
L 189.159537 230.008352 
L 189.673081 230.008352 
L 189.844263 231.969057 
L 190.528988 231.969057 
L 190.70017 237.85117 
L 191.042532 237.85117 
L 191.213714 235.890465 
L 192.069621 235.890465 
L 192.240802 116.287496 
L 192.583165 116.287496 
L 192.754346 112.366087 
L 193.096709 112.366087 
L 193.26789 116.287496 
L 194.637341 116.287496 
L 194.808523 98.641156 
L 194.979704 106.483974 
L 195.66443 106.483974 
L 195.835611 100.601861 
L 196.006792 104.52327 
L 196.862699 104.52327 
L 197.033881 108.444678 
L 197.205062 100.601861 
L 198.23215 100.601861 
L 198.403332 98.641156 
L 198.574513 94.719748 
L 199.259238 94.719748 
L 199.43042 92.759043 
L 200.115145 92.759043 
L 200.286327 88.837634 
L 200.457508 88.837634 
L 200.628689 104.52327 
L 201.655778 104.52327 
L 201.826959 110.405383 
L 204.223498 110.405383 
L 204.39468 112.366087 
L 204.565861 112.366087 
L 204.737043 110.405383 
L 204.908224 251.576101 
L 205.079405 251.576101 
L 205.250587 253.536805 
L 206.448856 253.536805 
L 206.620038 255.49751 
L 206.791219 255.49751 
L 206.9624 257.458214 
L 208.845396 257.458214 
L 209.016577 255.49751 
L 210.557209 255.49751 
L 210.728391 257.458214 
L 212.440204 257.458214 
L 212.611386 255.49751 
L 212.782567 259.418918 
L 212.953749 259.418918 
L 213.12493 261.379623 
L 213.296111 261.379623 
L 213.467293 263.340327 
L 214.3232 263.340327 
L 214.494381 261.379623 
L 215.863832 261.379623 
L 216.035013 263.340327 
L 216.719739 263.340327 
L 216.89092 265.301032 
L 217.233283 265.301032 
L 217.404464 263.340327 
L 218.260371 263.340327 
L 218.431553 265.301032 
L 218.773915 265.301032 
L 218.945097 263.340327 
L 219.116278 267.261736 
L 220.828092 267.261736 
L 220.999273 265.301032 
L 221.85518 265.301032 
L 222.026362 267.261736 
L 222.197543 265.301032 
L 222.368724 267.261736 
L 222.882268 267.261736 
L 223.05345 269.22244 
L 223.395813 269.22244 
L 223.566994 279.025963 
L 224.422901 279.025963 
L 224.765264 275.104554 
L 226.305896 275.104554 
L 226.477077 273.143849 
L 228.01771 273.143849 
L 228.188891 275.104554 
L 232.126063 275.104554 
L 232.297244 137.855245 
L 235.720872 137.855245 
L 235.892053 135.89454 
L 236.234416 135.89454 
L 236.405597 137.855245 
L 237.261504 137.855245 
L 237.432685 130.012427 
L 238.288592 130.012427 
L 238.459774 126.091018 
L 238.630955 126.091018 
L 238.802136 133.933836 
L 238.973318 130.012427 
L 239.144499 130.012427 
L 239.315681 133.933836 
L 239.486862 133.933836 
L 239.658043 126.091018 
L 240.51395 126.091018 
L 240.685132 277.065258 
L 240.856313 275.104554 
L 241.198676 275.104554 
L 241.369857 277.065258 
L 241.541038 126.091018 
L 242.568127 126.091018 
L 242.739308 277.065258 
L 246.162936 277.065258 
L 246.334117 279.025963 
L 248.388294 279.025963 
L 248.559475 280.986667 
L 250.271289 280.986667 
L 250.44247 282.947371 
L 251.469558 282.947371 
L 251.64074 290.790189 
L 251.811921 292.750893 
L 254.722004 292.750893 
L 254.893186 135.89454 
L 259.857446 135.89454 
L 260.028627 120.208905 
L 261.398078 120.208905 
L 261.56926 118.2482 
L 263.794617 118.2482 
L 263.965799 120.208905 
L 267.560608 120.208905 
L 267.731789 116.287496 
L 269.443603 116.287496 
L 269.614784 114.326792 
L 270.984235 114.326792 
L 271.155417 118.2482 
L 271.497779 118.2482 
L 271.668961 133.933836 
L 273.723137 133.933836 
L 273.894319 130.012427 
L 275.092588 130.012427 
L 275.26377 133.933836 
L 275.434951 133.933836 
L 275.606132 282.947371 
L 276.290858 282.947371 
L 276.462039 286.86878 
L 276.633221 286.86878 
L 276.804402 284.908076 
L 277.660309 284.908076 
L 277.83149 280.986667 
L 279.02976 280.986667 
L 279.200941 284.908076 
L 279.372123 284.908076 
L 279.543304 275.104554 
L 280.399211 275.104554 
L 280.570392 267.261736 
L 280.741574 280.986667 
L 280.912755 280.986667 
L 281.083936 284.908076 
L 282.624569 284.908076 
L 282.79575 279.025963 
L 284.336383 279.025963 
L 284.507564 280.986667 
L 284.678745 296.672302 
L 285.705834 296.672302 
L 285.877015 294.711598 
L 286.048196 282.947371 
L 286.219378 286.86878 
L 286.904103 286.86878 
L 287.075285 277.065258 
L 287.246466 280.986667 
L 287.417647 280.986667 
L 287.588829 286.86878 
L 287.76001 286.86878 
L 287.931192 284.908076 
L 288.615917 284.908076 
L 288.787098 288.829485 
L 289.471824 288.829485 
L 289.643005 284.908076 
L 290.498912 284.908076 
L 290.670094 286.86878 
L 292.210726 286.86878 
L 292.381907 290.790189 
L 292.553089 290.790189 
L 292.72427 288.829485 
L 295.291991 288.829485 
L 295.463172 290.790189 
L 295.634353 290.790189 
L 295.805535 292.750893 
L 295.976716 292.750893 
L 296.147898 294.711598 
L 297.174986 294.711598 
L 297.517349 290.790189 
L 298.030893 290.790189 
L 298.202074 288.829485 
L 299.742706 288.829485 
L 299.913888 290.790189 
L 300.256251 290.790189 
L 300.427432 286.86878 
L 301.283339 286.86878 
L 301.45452 284.908076 
L 301.625702 280.986667 
L 301.796883 280.986667 
L 301.968064 282.947371 
L 303.85106 282.947371 
L 304.193422 290.790189 
L 304.535785 290.790189 
L 304.706966 286.86878 
L 306.076417 286.86878 
L 306.247599 290.790189 
L 308.301775 290.790189 
L 308.472957 288.829485 
L 309.671226 288.829485 
L 309.842408 286.86878 
L 311.554221 286.86878 
L 311.896584 282.947371 
L 313.437217 282.947371 
L 313.608398 286.86878 
L 318.401477 286.86878 
L 318.572658 288.829485 
L 318.915021 288.829485 
L 319.086202 292.750893 
L 319.257383 288.829485 
L 319.428565 288.829485 
L 319.599746 292.750893 
L 319.770928 292.750893 
L 319.942109 288.829485 
L 321.482741 288.829485 
L 321.653923 290.790189 
L 326.447001 290.790189 
L 326.618183 286.86878 
L 327.474089 286.86878 
L 327.645271 292.750893 
L 330.212992 292.750893 
L 330.384173 288.829485 
L 331.753624 288.829485 
L 332.095987 292.750893 
L 333.123075 292.750893 
L 333.294256 294.711598 
L 333.465438 292.750893 
L 333.636619 294.711598 
L 333.978982 294.711598 
L 334.150163 296.672302 
L 334.492526 292.750893 
L 351.781845 292.750893 
L 351.953026 294.711598 
L 353.493659 294.711598 
L 353.66484 292.750893 
L 362.908634 292.750893 
L 363.079816 290.790189 
L 363.935723 290.790189 
L 364.106904 292.750893 
L 364.278085 292.750893 
L 364.449267 294.711598 
L 366.332262 294.711598 
L 366.503443 296.672302 
L 368.899983 296.672302 
L 369.071164 298.633007 
L 369.755889 298.633007 
L 369.927071 296.672302 
L 372.494791 296.672302 
L 372.665973 294.711598 
L 376.0896 294.711598 
L 376.260782 296.672302 
L 376.603145 296.672302 
L 376.774326 294.711598 
L 379.170865 294.711598 
L 379.342047 292.750893 
L 379.513228 294.711598 
L 381.738586 294.711598 
L 381.909767 296.672302 
L 383.4504 296.672302 
L 383.621581 298.633007 
L 384.477488 298.633007 
L 384.648669 296.672302 
L 384.819851 296.672302 
L 384.991032 298.633007 
L 385.162213 296.672302 
L 385.333395 296.672302 
L 385.504576 294.711598 
L 386.189302 294.711598 
L 386.360483 296.672302 
L 386.702846 296.672302 
L 386.874027 294.711598 
L 392.865375 294.711598 
L 393.036557 292.750893 
L 400.397356 292.750893 
L 400.568537 294.711598 
L 401.253263 294.711598 
L 401.424444 292.750893 
L 404.67689 292.750893 
L 404.848072 290.790189 
L 409.812332 290.790189 
L 409.983513 288.829485 
L 411.010601 288.829485 
L 411.181783 280.986667 
L 411.352964 280.986667 
L 411.524145 279.025963 
L 411.866508 279.025963 
L 412.037689 284.908076 
L 412.208871 284.908076 
L 412.380052 288.829485 
L 414.434229 288.829485 
L 414.60541 290.790189 
L 414.947773 290.790189 
L 415.118954 284.908076 
L 419.056126 284.908076 
L 419.227307 282.947371 
L 419.398489 282.947371 
L 419.56967 280.986667 
L 420.425577 280.986667 
L 420.596758 284.908076 
L 420.76794 284.908076 
L 420.939121 286.86878 
L 428.813464 286.86878 
L 428.984646 290.790189 
L 430.354097 290.790189 
L 430.525278 286.86878 
L 432.408273 286.86878 
L 432.579455 290.790189 
L 433.948906 290.790189 
L 434.120087 292.750893 
L 435.489538 292.750893 
L 435.660719 294.711598 
L 438.057259 294.711598 
L 438.22844 292.750893 
L 438.570803 292.750893 
L 438.741984 294.711598 
L 438.913166 292.750893 
L 439.084347 294.711598 
L 439.255528 292.750893 
L 439.42671 294.711598 
L 439.597891 294.711598 
L 439.769072 292.750893 
L 439.940254 294.711598 
L 440.111435 294.711598 
L 440.282617 292.750893 
L 440.453798 294.711598 
L 443.706244 294.711598 
L 443.877425 290.790189 
L 444.219788 290.790189 
L 444.562151 286.86878 
L 453.292401 286.86878 
L 453.463583 288.829485 
L 454.319489 288.829485 
L 454.490671 286.86878 
L 456.202485 286.86878 
L 456.373666 290.790189 
L 457.914298 290.790189 
L 458.08548 292.750893 
L 458.427843 292.750893 
L 458.599024 294.711598 
L 462.707377 294.711598 
L 462.878558 292.750893 
L 464.932735 292.750893 
L 465.103916 296.672302 
L 465.61746 296.672302 
L 465.788642 294.711598 
L 469.554632 294.711598 
L 469.725813 298.633007 
L 470.068176 298.633007 
L 470.239357 296.672302 
L 470.924083 296.672302 
L 471.095264 298.633007 
L 471.266446 294.711598 
L 476.059524 294.711598 
L 476.230706 296.672302 
L 478.113701 296.672302 
L 478.284882 294.711598 
L 479.483152 294.711598 
L 479.654333 292.750893 
L 481.023784 292.750893 
L 481.194966 294.711598 
L 482.906779 294.711598 
L 483.077961 296.672302 
L 484.447412 296.672302 
L 484.618593 294.711598 
L 485.303319 294.711598 
L 485.4745 292.750893 
L 489.411672 292.750893 
L 489.582853 298.633007 
L 493.348843 298.633007 
L 493.520025 300.593711 
L 493.691206 300.593711 
L 493.862387 302.554416 
L 495.916564 302.554416 
L 496.087745 300.593711 
L 496.772471 300.593711 
L 496.943652 302.554416 
L 498.997829 302.554416 
L 499.16901 300.593711 
L 506.187447 300.593711 
L 506.358628 294.711598 
L 507.214535 294.711598 
L 507.385716 298.633007 
L 507.556898 298.633007 
L 507.728079 300.593711 
L 508.583986 300.593711 
L 508.755167 296.672302 
L 509.782255 296.672302 
L 509.953437 294.711598 
L 510.466981 294.711598 
L 510.638162 302.554416 
L 510.809344 302.554416 
L 510.980525 304.51512 
L 512.007613 304.51512 
L 512.178795 308.436529 
L 516.629511 308.436529 
L 516.800692 306.475824 
L 522.620859 306.475824 
L 522.79204 302.554416 
L 523.99031 302.554416 
L 524.161491 306.475824 
L 524.503854 306.475824 
L 524.675035 302.554416 
L 528.612207 302.554416 
L 528.783388 306.475824 
L 529.810476 306.475824 
L 529.981658 302.554416 
L 530.152839 304.51512 
L 530.495202 304.51512 
L 530.666383 302.554416 
L 530.837565 304.51512 
L 531.351109 304.51512 
L 531.52229 310.397233 
L 531.864653 310.397233 
L 532.035834 308.436529 
L 532.378197 308.436529 
L 532.549379 304.51512 
L 533.062923 304.51512 
L 533.234104 308.436529 
L 533.405285 306.475824 
L 533.576467 308.436529 
L 534.090011 308.436529 
L 534.432374 304.51512 
L 534.603555 304.51512 
L 534.945918 308.436529 
L 537.856001 308.436529 
L 538.027183 304.51512 
L 538.198364 306.475824 
L 538.883089 306.475824 
L 539.054271 310.397233 
L 539.567815 310.397233 
L 539.738996 308.436529 
L 539.910178 310.397233 
L 540.081359 306.475824 
L 540.25254 194.715673 
L 542.64908 194.715673 
L 542.820261 200.597786 
L 547.784521 200.597786 
L 547.955702 194.715673 
L 551.036967 194.715673 
L 551.208149 196.676377 
L 551.37933 196.676377 
L 551.550511 198.637082 
L 553.775869 198.637082 
L 553.947051 196.676377 
L 554.118232 198.637082 
L 561.136668 198.637082 
L 561.30785 196.676377 
L 561.992575 196.676377 
L 562.163757 198.637082 
L 562.506119 198.637082 
L 562.677301 196.676377 
L 569.182193 196.676377 
L 569.353374 194.715673 
L 570.722825 194.715673 
L 570.894007 192.754968 
L 577.741262 192.754968 
L 577.912443 186.872855 
L 578.425987 186.872855 
L 578.597169 188.833559 
L 578.939532 188.833559 
L 579.110713 194.715673 
L 583.047885 194.715673 
L 583.219066 192.754968 
L 592.291679 192.754968 
L 592.46286 190.794264 
L 598.111846 190.794264 
L 598.283027 188.833559 
L 598.796571 188.833559 
L 598.967753 190.794264 
L 601.19311 190.794264 
L 601.364292 302.554416 
L 602.562562 302.554416 
L 602.733743 300.593711 
L 604.274375 300.593711 
L 604.445557 190.794264 
L 604.616738 300.593711 
L 604.787919 190.794264 
L 609.923361 190.794264 
L 610.094542 188.833559 
L 610.265723 188.833559 
L 610.436905 190.794264 
L 619.851881 190.794264 
L 620.023062 192.754968 
L 621.221332 192.754968 
L 621.392513 302.554416 
L 622.077238 302.554416 
L 622.24842 294.711598 
L 622.419601 294.711598 
L 622.590783 304.51512 
L 623.789052 304.51512 
L 623.960234 302.554416 
L 661.962499 302.554416 
L 662.133681 300.593711 
L 664.016676 300.593711 
L 664.187857 302.554416 
L 665.386127 302.554416 
L 665.557308 296.672302 
L 666.070852 296.672302 
L 666.242034 302.554416 
L 670.350387 302.554416 
L 670.521568 296.672302 
L 671.548656 296.672302 
L 671.719838 302.554416 
L 679.251818 302.554416 
L 679.251818 302.554416 
" clip-path="url(#p28f9fcabb1)" style="fill: none; stroke-dasharray: 7.4,3.2; stroke-dashoffset: 0; stroke: #e74c3c; stroke-opacity: 0.9; stroke-width: 2"/>
   </g>
   <g id="patch_3">
    <path d="M 50.34 390.66 
L 50.34 41.6 
" style="fill: none; stroke: #ffffff; stroke-width: 1.5; stroke-linejoin: miter; stroke-linecap: square"/>
   </g>
   <g id="patch_4">
    <path d="M 709.2 390.66 
L 709.2 41.6 
" style="fill: none; stroke: #ffffff; stroke-width: 1.5; stroke-linejoin: miter; stroke-linecap: square"/>
   </g>
   <g id="patch_5">
    <path d="M 50.34 390.66 
L 709.2 390.66 
" style="fill: none; stroke: #ffffff; stroke-width: 1.5; stroke-linejoin: miter; stroke-linecap: square"/>
   </g>
   <g id="patch_6">
    <path d="M 50.34 41.6 
L 709.2 41.6 
" style="fill: none; stroke: #ffffff; stroke-width: 1.5; stroke-linejoin: miter; stroke-linecap: square"/>
   </g>
   <g id="text_20">
    <!-- Training Progress - Soft vs Hard Gates -->
    <g style="fill: #262626" transform="translate(228.608281 21.6) scale(0.14 -0.14)">
     <defs>
      <path id="DejaVuSans-Bold-50" d="M 588 4666 
L 2584 4666 
Q 3475 4666 3951 4270 
Q 4428 3875 4428 3144 
Q 4428 2409 3951 2014 
Q 3475 1619 2584 1619 
L 1791 1619 
L 1791 0 
L 588 0 
L 588 4666 
z
M 1791 3794 
L 1791 2491 
L 2456 2491 
Q 2806 2491 2997 2661 
Q 3188 2831 3188 3144 
Q 3188 3456 2997 3625 
Q 2806 3794 2456 3794 
L 1791 3794 
z
" transform="scale(0.015625)"/>
      <path id="DejaVuSans-Bold-2d" d="M 347 2297 
L 2309 2297 
L 2309 1388 
L 347 1388 
L 347 2297 
z
" transform="scale(0.015625)"/>
      <path id="DejaVuSans-Bold-66" d="M 2841 4863 
L 2841 4128 
L 2222 4128 
Q 1984 4128 1890 4042 
Q 1797 3956 1797 3744 
L 1797 3500 
L 2753 3500 
L 2753 2700 
L 1797 2700 
L 1797 0 
L 678 0 
L 678 2700 
L 122 2700 
L 122 3500 
L 678 3500 
L 678 3744 
Q 678 4316 997 4589 
Q 1316 4863 1984 4863 
L 2841 4863 
z
" transform="scale(0.015625)"/>
      <path id="DejaVuSans-Bold-76" d="M 97 3500 
L 1216 3500 
L 2088 1081 
L 2956 3500 
L 4078 3500 
L 2700 0 
L 1472 0 
L 97 3500 
z
" transform="scale(0.015625)"/>
      <path id="DejaVuSans-Bold-48" d="M 588 4666 
L 1791 4666 
L 1791 2888 
L 3566 2888 
L 3566 4666 
L 4769 4666 
L 4769 0 
L 3566 0 
L 3566 1978 
L 1791 1978 
L 1791 0 
L 588 0 
L 588 4666 
z
" transform="scale(0.015625)"/>
      <path id="DejaVuSans-Bold-64" d="M 2919 2988 
L 2919 4863 
L 4044 4863 
L 4044 0 
L 2919 0 
L 2919 506 
Q 2688 197 2409 53 
Q 2131 -91 1766 -91 
Q 1119 -91 703 423 
Q 288 938 288 1747 
Q 288 2556 703 3070 
Q 1119 3584 1766 3584 
Q 2128 3584 2408 3439 
Q 2688 3294 2919 2988 
z
M 2181 722 
Q 2541 722 2730 984 
Q 2919 1247 2919 1747 
Q 2919 2247 2730 2509 
Q 2541 2772 2181 2772 
Q 1825 2772 1636 2509 
Q 1447 2247 1447 1747 
Q 1447 1247 1636 984 
Q 1825 722 2181 722 
z
" transform="scale(0.015625)"/>
      <path id="DejaVuSans-Bold-47" d="M 4781 347 
Q 4331 128 3847 18 
Q 3363 -91 2847 -91 
Q 1681 -91 1000 561 
Q 319 1213 319 2328 
Q 319 3456 1012 4103 
Q 1706 4750 2913 4750 
Q 3378 4750 3804 4662 
Q 4231 4575 4609 4403 
L 4609 3438 
Q 4219 3659 3833 3768 
Q 3447 3878 3059 3878 
Q 2341 3878 1952 3476 
Q 1563 3075 1563 2328 
Q 1563 1588 1938 1184 
Q 2313 781 3003 781 
Q 3191 781 3352 804 
Q 3513 828 3641 878 
L 3641 1784 
L 2906 1784 
L 2906 2591 
L 4781 2591 
L 4781 347 
z
" transform="scale(0.015625)"/>
     </defs>
     <use xlink:href="#DejaVuSans-Bold-54"/>
     <use xlink:href="#DejaVuSans-Bold-72" transform="translate(57.212891 0)"/>
     <use xlink:href="#DejaVuSans-Bold-61" transform="translate(106.529297 0)"/>
     <use xlink:href="#DejaVuSans-Bold-69" transform="translate(174.009766 0)"/>
     <use xlink:href="#DejaVuSans-Bold-6e" transform="translate(208.287109 0)"/>
     <use xlink:href="#DejaVuSans-Bold-69" transform="translate(279.478516 0)"/>
     <use xlink:href="#DejaVuSans-Bold-6e" transform="translate(313.755859 0)"/>
     <use xlink:href="#DejaVuSans-Bold-67" transform="translate(384.947266 0)"/>
     <use xlink:href="#DejaVuSans-Bold-20" transform="translate(456.529297 0)"/>
     <use xlink:href="#DejaVuSans-Bold-50" transform="translate(491.34375 0)"/>
     <use xlink:href="#DejaVuSans-Bold-72" transform="translate(564.634766 0)"/>
     <use xlink:href="#DejaVuSans-Bold-6f" transform="translate(613.951172 0)"/>
     <use xlink:href="#DejaVuSans-Bold-67" transform="translate(682.652344 0)"/>
     <use xlink:href="#DejaVuSans-Bold-72" transform="translate(754.234375 0)"/>
     <use xlink:href="#DejaVuSans-Bold-65" transform="translate(803.550781 0)"/>
     <use xlink:href="#DejaVuSans-Bold-73" transform="translate(871.373047 0)"/>
     <use xlink:href="#DejaVuSans-Bold-73" transform="translate(930.894531 0)"/>
     <use xlink:href="#DejaVuSans-Bold-20" transform="translate(990.416016 0)"/>
     <use xlink:href="#DejaVuSans-Bold-2d" transform="translate(1025.230469 0)"/>
     <use xlink:href="#DejaVuSans-Bold-20" transform="translate(1066.734375 0)"/>
     <use xlink:href="#DejaVuSans-Bold-53" transform="translate(1101.548828 0)"/>
     <use xlink:href="#DejaVuSans-Bold-6f" transform="translate(1173.570312 0)"/>
     <use xlink:href="#DejaVuSans-Bold-66" transform="translate(1242.271484 0)"/>
     <use xlink:href="#DejaVuSans-Bold-74" transform="translate(1285.777344 0)"/>
     <use xlink:href="#DejaVuSans-Bold-20" transform="translate(1333.580078 0)"/>
     <use xlink:href="#DejaVuSans-Bold-76" transform="translate(1368.394531 0)"/>
     <use xlink:href="#DejaVuSans-Bold-73" transform="translate(1433.580078 0)"/>
     <use xlink:href="#DejaVuSans-Bold-20" transform="translate(1493.101562 0)"/>
     <use xlink:href="#DejaVuSans-Bold-48" transform="translate(1527.916016 0)"/>
     <use xlink:href="#DejaVuSans-Bold-61" transform="translate(1611.607422 0)"/>
     <use xlink:href="#DejaVuSans-Bold-72" transform="translate(1679.087891 0)"/>
     <use xlink:href="#DejaVuSans-Bold-64" transform="translate(1728.404297 0)"/>
     <use xlink:href="#DejaVuSans-Bold-20" transform="translate(1799.986328 0)"/>
     <use xlink:href="#DejaVuSans-Bold-47" transform="translate(1834.800781 0)"/>
     <use xlink:href="#DejaVuSans-Bold-61" transform="translate(1916.880859 0)"/>
     <use xlink:href="#DejaVuSans-Bold-74" transform="translate(1984.361328 0)"/>
     <use xlink:href="#DejaVuSans-Bold-65" transform="translate(2032.164062 0)"/>
     <use xlink:href="#DejaVuSans-Bold-73" transform="translate(2099.986328 0)"/>
    </g>
   </g>
   <g id="legend_1">
    <g id="patch_7">
     <path d="M 590.817188 80.95625 
L 704.2 80.95625 
Q 706.2 80.95625 706.2 78.95625 
L 706.2 50.6 
Q 706.2 48.6 704.2 48.6 
L 590.817188 48.6 
Q 588.817188 48.6 588.817188 50.6 
L 588.817188 78.95625 
Q 588.817188 80.95625 590.817188 80.95625 
z
" style="fill: #464649; opacity: 0.5; stroke: #464649; stroke-linejoin: miter"/>
    </g>
    <g id="patch_8">
     <path d="M 588.817188 78.95625 
L 702.2 78.95625 
Q 704.2 78.95625 704.2 76.95625 
L 704.2 48.6 
Q 704.2 46.6 702.2 46.6 
L 588.817188 46.6 
Q 586.817188 46.6 586.817188 48.6 
L 586.817188 76.95625 
Q 586.817188 78.95625 588.817188 78.95625 
z
" style="fill: #eaeaf2; stroke: #cccccc; stroke-linejoin: miter"/>
    </g>
    <g id="line2d_37">
     <path d="M 590.817188 54.698438 
L 600.817188 54.698438 
L 610.817188 54.698438 
" style="fill: none; stroke: #2e86c1; stroke-opacity: 0.9; stroke-width: 2; stroke-linecap: round"/>
    </g>
    <g id="text_21">
     <!-- Soft Gates Loss -->
     <g style="fill: #262626" transform="translate(618.817188 58.198438) scale(0.1 -0.1)">
      <defs>
       <path id="DejaVuSans-53" d="M 3425 4513 
L 3425 3897 
Q 3066 4069 2747 4153 
Q 2428 4238 2131 4238 
Q 1616 4238 1336 4038 
Q 1056 3838 1056 3469 
Q 1056 3159 1242 3001 
Q 1428 2844 1947 2747 
L 2328 2669 
Q 3034 2534 3370 2195 
Q 3706 1856 3706 1288 
Q 3706 609 3251 259 
Q 2797 -91 1919 -91 
Q 1588 -91 1214 -16 
Q 841 59 441 206 
L 441 856 
Q 825 641 1194 531 
Q 1563 422 1919 422 
Q 2459 422 2753 634 
Q 3047 847 3047 1241 
Q 3047 1584 2836 1778 
Q 2625 1972 2144 2069 
L 1759 2144 
Q 1053 2284 737 2584 
Q 422 2884 422 3419 
Q 422 4038 858 4394 
Q 1294 4750 2059 4750 
Q 2388 4750 2728 4690 
Q 3069 4631 3425 4513 
z
" transform="scale(0.015625)"/>
       <path id="DejaVuSans-6f" d="M 1959 3097 
Q 1497 3097 1228 2736 
Q 959 2375 959 1747 
Q 959 1119 1226 758 
Q 1494 397 1959 397 
Q 2419 397 2687 759 
Q 2956 1122 2956 1747 
Q 2956 2369 2687 2733 
Q 2419 3097 1959 3097 
z
M 1959 3584 
Q 2709 3584 3137 3096 
Q 3566 2609 3566 1747 
Q 3566 888 3137 398 
Q 2709 -91 1959 -91 
Q 1206 -91 779 398 
Q 353 888 353 1747 
Q 353 2609 779 3096 
Q 1206 3584 1959 3584 
z
" transform="scale(0.015625)"/>
       <path id="DejaVuSans-66" d="M 2375 4863 
L 2375 4384 
L 1825 4384 
Q 1516 4384 1395 4259 
Q 1275 4134 1275 3809 
L 1275 3500 
L 2222 3500 
L 2222 3053 
L 1275 3053 
L 1275 0 
L 697 0 
L 697 3053 
L 147 3053 
L 147 3500 
L 697 3500 
L 697 3744 
Q 697 4328 969 4595 
Q 1241 4863 1831 4863 
L 2375 4863 
z
" transform="scale(0.015625)"/>
       <path id="DejaVuSans-74" d="M 1172 4494 
L 1172 3500 
L 2356 3500 
L 2356 3053 
L 1172 3053 
L 1172 1153 
Q 1172 725 1289 603 
Q 1406 481 1766 481 
L 2356 481 
L 2356 0 
L 1766 0 
Q 1100 0 847 248 
Q 594 497 594 1153 
L 594 3053 
L 172 3053 
L 172 3500 
L 594 3500 
L 594 4494 
L 1172 4494 
z
" transform="scale(0.015625)"/>
       <path id="DejaVuSans-20" transform="scale(0.015625)"/>
       <path id="DejaVuSans-47" d="M 3809 666 
L 3809 1919 
L 2778 1919 
L 2778 2438 
L 4434 2438 
L 4434 434 
Q 4069 175 3628 42 
Q 3188 -91 2688 -91 
Q 1594 -91 976 548 
Q 359 1188 359 2328 
Q 359 3472 976 4111 
Q 1594 4750 2688 4750 
Q 3144 4750 3555 4637 
Q 3966 4525 4313 4306 
L 4313 3634 
Q 3963 3931 3569 4081 
Q 3175 4231 2741 4231 
Q 1884 4231 1454 3753 
Q 1025 3275 1025 2328 
Q 1025 1384 1454 906 
Q 1884 428 2741 428 
Q 3075 428 3337 486 
Q 3600 544 3809 666 
z
" transform="scale(0.015625)"/>
       <path id="DejaVuSans-61" d="M 2194 1759 
Q 1497 1759 1228 1600 
Q 959 1441 959 1056 
Q 959 750 1161 570 
Q 1363 391 1709 391 
Q 2188 391 2477 730 
Q 2766 1069 2766 1631 
L 2766 1759 
L 2194 1759 
z
M 3341 1997 
L 3341 0 
L 2766 0 
L 2766 531 
Q 2569 213 2275 61 
Q 1981 -91 1556 -91 
Q 1019 -91 701 211 
Q 384 513 384 1019 
Q 384 1609 779 1909 
Q 1175 2209 1959 2209 
L 2766 2209 
L 2766 2266 
Q 2766 2663 2505 2880 
Q 2244 3097 1772 3097 
Q 1472 3097 1187 3025 
Q 903 2953 641 2809 
L 641 3341 
Q 956 3463 1253 3523 
Q 1550 3584 1831 3584 
Q 2591 3584 2966 3190 
Q 3341 2797 3341 1997 
z
" transform="scale(0.015625)"/>
       <path id="DejaVuSans-65" d="M 3597 1894 
L 3597 1613 
L 953 1613 
Q 991 1019 1311 708 
Q 1631 397 2203 397 
Q 2534 397 2845 478 
Q 3156 559 3463 722 
L 3463 178 
Q 3153 47 2828 -22 
Q 2503 -91 2169 -91 
Q 1331 -91 842 396 
Q 353 884 353 1716 
Q 353 2575 817 3079 
Q 1281 3584 2069 3584 
Q 2775 3584 3186 3129 
Q 3597 2675 3597 1894 
z
M 3022 2063 
Q 3016 2534 2758 2815 
Q 2500 3097 2075 3097 
Q 1594 3097 1305 2825 
Q 1016 2553 972 2059 
L 3022 2063 
z
" transform="scale(0.015625)"/>
       <path id="DejaVuSans-73" d="M 2834 3397 
L 2834 2853 
Q 2591 2978 2328 3040 
Q 2066 3103 1784 3103 
Q 1356 3103 1142 2972 
Q 928 2841 928 2578 
Q 928 2378 1081 2264 
Q 1234 2150 1697 2047 
L 1894 2003 
Q 2506 1872 2764 1633 
Q 3022 1394 3022 966 
Q 3022 478 2636 193 
Q 2250 -91 1575 -91 
Q 1294 -91 989 -36 
Q 684 19 347 128 
L 347 722 
Q 666 556 975 473 
Q 1284 391 1588 391 
Q 1994 391 2212 530 
Q 2431 669 2431 922 
Q 2431 1156 2273 1281 
Q 2116 1406 1581 1522 
L 1381 1569 
Q 847 1681 609 1914 
Q 372 2147 372 2553 
Q 372 3047 722 3315 
Q 1072 3584 1716 3584 
Q 2034 3584 2315 3537 
Q 2597 3491 2834 3397 
z
" transform="scale(0.015625)"/>
       <path id="DejaVuSans-4c" d="M 628 4666 
L 1259 4666 
L 1259 531 
L 3531 531 
L 3531 0 
L 628 0 
L 628 4666 
z
" transform="scale(0.015625)"/>
      </defs>
      <use xlink:href="#DejaVuSans-53"/>
      <use xlink:href="#DejaVuSans-6f" transform="translate(63.476562 0)"/>
      <use xlink:href="#DejaVuSans-66" transform="translate(124.658203 0)"/>
      <use xlink:href="#DejaVuSans-74" transform="translate(158.113281 0)"/>
      <use xlink:href="#DejaVuSans-20" transform="translate(197.322266 0)"/>
      <use xlink:href="#DejaVuSans-47" transform="translate(229.109375 0)"/>
      <use xlink:href="#DejaVuSans-61" transform="translate(306.599609 0)"/>
      <use xlink:href="#DejaVuSans-74" transform="translate(367.878906 0)"/>
      <use xlink:href="#DejaVuSans-65" transform="translate(407.087891 0)"/>
      <use xlink:href="#DejaVuSans-73" transform="translate(468.611328 0)"/>
      <use xlink:href="#DejaVuSans-20" transform="translate(520.710938 0)"/>
      <use xlink:href="#DejaVuSans-4c" transform="translate(552.498047 0)"/>
      <use xlink:href="#DejaVuSans-6f" transform="translate(606.460938 0)"/>
      <use xlink:href="#DejaVuSans-73" transform="translate(667.642578 0)"/>
      <use xlink:href="#DejaVuSans-73" transform="translate(719.742188 0)"/>
     </g>
    </g>
    <g id="line2d_38">
     <path d="M 590.817188 69.376563 
L 600.817188 69.376563 
L 610.817188 69.376563 
" style="fill: none; stroke-dasharray: 7.4,3.2; stroke-dashoffset: 0; stroke: #e74c3c; stroke-opacity: 0.9; stroke-width: 2"/>
    </g>
    <g id="text_22">
     <!-- Hard Gates Loss -->
     <g style="fill: #262626" transform="translate(618.817188 72.876563) scale(0.1 -0.1)">
      <defs>
       <path id="DejaVuSans-48" d="M 628 4666 
L 1259 4666 
L 1259 2753 
L 3553 2753 
L 3553 4666 
L 4184 4666 
L 4184 0 
L 3553 0 
L 3553 2222 
L 1259 2222 
L 1259 0 
L 628 0 
L 628 4666 
z
" transform="scale(0.015625)"/>
       <path id="DejaVuSans-72" d="M 2631 2963 
Q 2534 3019 2420 3045 
Q 2306 3072 2169 3072 
Q 1681 3072 1420 2755 
Q 1159 2438 1159 1844 
L 1159 0 
L 581 0 
L 581 3500 
L 1159 3500 
L 1159 2956 
Q 1341 3275 1631 3429 
Q 1922 3584 2338 3584 
Q 2397 3584 2469 3576 
Q 2541 3569 2628 3553 
L 2631 2963 
z
" transform="scale(0.015625)"/>
       <path id="DejaVuSans-64" d="M 2906 2969 
L 2906 4863 
L 3481 4863 
L 3481 0 
L 2906 0 
L 2906 525 
Q 2725 213 2448 61 
Q 2172 -91 1784 -91 
Q 1150 -91 751 415 
Q 353 922 353 1747 
Q 353 2572 751 3078 
Q 1150 3584 1784 3584 
Q 2172 3584 2448 3432 
Q 2725 3281 2906 2969 
z
M 947 1747 
Q 947 1113 1208 752 
Q 1469 391 1925 391 
Q 2381 391 2643 752 
Q 2906 1113 2906 1747 
Q 2906 2381 2643 2742 
Q 2381 3103 1925 3103 
Q 1469 3103 1208 2742 
Q 947 2381 947 1747 
z
" transform="scale(0.015625)"/>
      </defs>
      <use xlink:href="#DejaVuSans-48"/>
      <use xlink:href="#DejaVuSans-61" transform="translate(75.195312 0)"/>
      <use xlink:href="#DejaVuSans-72" transform="translate(136.474609 0)"/>
      <use xlink:href="#DejaVuSans-64" transform="translate(175.837891 0)"/>
      <use xlink:href="#DejaVuSans-20" transform="translate(239.314453 0)"/>
      <use xlink:href="#DejaVuSans-47" transform="translate(271.101562 0)"/>
      <use xlink:href="#DejaVuSans-61" transform="translate(348.591797 0)"/>
      <use xlink:href="#DejaVuSans-74" transform="translate(409.871094 0)"/>
      <use xlink:href="#DejaVuSans-65" transform="translate(449.080078 0)"/>
      <use xlink:href="#DejaVuSans-73" transform="translate(510.603516 0)"/>
      <use xlink:href="#DejaVuSans-20" transform="translate(562.703125 0)"/>
      <use xlink:href="#DejaVuSans-4c" transform="translate(594.490234 0)"/>
      <use xlink:href="#DejaVuSans-6f" transform="translate(648.453125 0)"/>
      <use xlink:href="#DejaVuSans-73" transform="translate(709.634766 0)"/>
      <use xlink:href="#DejaVuSans-73" transform="translate(761.734375 0)"/>
     </g>
    </g>
   </g>
  </g>
 </g>
 <defs>
  <clipPath id="p28f9fcabb1">
   <rect x="50.34" y="41.6" width="658.86" height="349.06"/>
  </clipPath>
 </defs>
</svg>
