<?xml version="1.0" encoding="utf-8" standalone="no"?>
<!DOCTYPE svg PUBLIC "-//W3C//DTD SVG 1.1//EN"
  "http://www.w3.org/Graphics/SVG/1.1/DTD/svg11.dtd">
<svg xmlns:xlink="http://www.w3.org/1999/xlink" width="720pt" height="432pt" viewBox="0 0 720 432" xmlns="http://www.w3.org/2000/svg" version="1.1">
 <metadata>
  <rdf:RDF xmlns:dc="http://purl.org/dc/elements/1.1/" xmlns:cc="http://creativecommons.org/ns#" xmlns:rdf="http://www.w3.org/1999/02/22-rdf-syntax-ns#">
   <cc:Work>
    <dc:type rdf:resource="http://purl.org/dc/dcmitype/StillImage"/>
    <dc:date>2025-10-30T20:15:39.100129</dc:date>
    <dc:format>image/svg+xml</dc:format>
    <dc:creator>
     <cc:Agent>
      <dc:title>Matplotlib v3.10.7, https://matplotlib.org/</dc:title>
     </cc:Agent>
    </dc:creator>
   </cc:Work>
  </rdf:RDF>
 </metadata>
 <defs>
  <style type="text/css">*{stroke-linejoin: round; stroke-linecap: butt}</style>
 </defs>
 <g id="figure_1">
  <g id="patch_1">
   <path d="M 0 432 
L 720 432 
L 720 0 
L 0 0 
z
" style="fill: #ffffff"/>
  </g>
  <g id="axes_1">
   <g id="patch_2">
    <path d="M 50.25 390.66 
L 709.2 390.66 
L 709.2 41.6 
L 50.25 41.6 
z
" style="fill: #f8f9fa"/>
   </g>
   <g id="matplotlib.axis_1">
    <g id="xtick_1">
     <g id="line2d_1">
      <path d="M 80.202273 390.66 
L 80.202273 41.6 
" clip-path="url(#pd94ee131d5)" style="fill: none; stroke-dasharray: 2.96,1.28; stroke-dashoffset: 0; stroke: #808080; stroke-opacity: 0.7; stroke-width: 0.8"/>
     </g>
     <g id="line2d_2"/>
     <g id="text_1">
      <!-- 0 -->
      <g style="fill: #262626" transform="translate(77.021023 401.758438) scale(0.1 -0.1)">
       <defs>
        <path id="DejaVuSans-30" d="M 2034 4250 
Q 1547 4250 1301 3770 
Q 1056 3291 1056 2328 
Q 1056 1369 1301 889 
Q 1547 409 2034 409 
Q 2525 409 2770 889 
Q 3016 1369 3016 2328 
Q 3016 3291 2770 3770 
Q 2525 4250 2034 4250 
z
M 2034 4750 
Q 2819 4750 3233 4129 
Q 3647 3509 3647 2328 
Q 3647 1150 3233 529 
Q 2819 -91 2034 -91 
Q 1250 -91 836 529 
Q 422 1150 422 2328 
Q 422 3509 836 4129 
Q 1250 4750 2034 4750 
z
" transform="scale(0.015625)"/>
       </defs>
       <use xlink:href="#DejaVuSans-30"/>
      </g>
     </g>
    </g>
    <g id="xtick_2">
     <g id="line2d_3">
      <path d="M 165.804653 390.66 
L 165.804653 41.6 
" clip-path="url(#pd94ee131d5)" style="fill: none; stroke-dasharray: 2.96,1.28; stroke-dashoffset: 0; stroke: #808080; stroke-opacity: 0.7; stroke-width: 0.8"/>
     </g>
     <g id="line2d_4"/>
     <g id="text_2">
      <!-- 500 -->
      <g style="fill: #262626" transform="translate(156.260903 401.758438) scale(0.1 -0.1)">
       <defs>
        <path id="DejaVuSans-35" d="M 691 4666 
L 3169 4666 
L 3169 4134 
L 1269 4134 
L 1269 2991 
Q 1406 3038 1543 3061 
Q 1681 3084 1819 3084 
Q 2600 3084 3056 2656 
Q 3513 2228 3513 1497 
Q 3513 744 3044 326 
Q 2575 -91 1722 -91 
Q 1428 -91 1123 -41 
Q 819 9 494 109 
L 494 744 
Q 775 591 1075 516 
Q 1375 441 1709 441 
Q 2250 441 2565 725 
Q 2881 1009 2881 1497 
Q 2881 1984 2565 2268 
Q 2250 2553 1709 2553 
Q 1456 2553 1204 2497 
Q 953 2441 691 2322 
L 691 4666 
z
" transform="scale(0.015625)"/>
       </defs>
       <use xlink:href="#DejaVuSans-35"/>
       <use xlink:href="#DejaVuSans-30" transform="translate(63.623047 0)"/>
       <use xlink:href="#DejaVuSans-30" transform="translate(127.246094 0)"/>
      </g>
     </g>
    </g>
    <g id="xtick_3">
     <g id="line2d_5">
      <path d="M 251.407033 390.66 
L 251.407033 41.6 
" clip-path="url(#pd94ee131d5)" style="fill: none; stroke-dasharray: 2.96,1.28; stroke-dashoffset: 0; stroke: #808080; stroke-opacity: 0.7; stroke-width: 0.8"/>
     </g>
     <g id="line2d_6"/>
     <g id="text_3">
      <!-- 1000 -->
      <g style="fill: #262626" transform="translate(238.682033 401.758438) scale(0.1 -0.1)">
       <defs>
        <path id="DejaVuSans-31" d="M 794 531 
L 1825 531 
L 1825 4091 
L 703 3866 
L 703 4441 
L 1819 4666 
L 2450 4666 
L 2450 531 
L 3481 531 
L 3481 0 
L 794 0 
L 794 531 
z
" transform="scale(0.015625)"/>
       </defs>
       <use xlink:href="#DejaVuSans-31"/>
       <use xlink:href="#DejaVuSans-30" transform="translate(63.623047 0)"/>
       <use xlink:href="#DejaVuSans-30" transform="translate(127.246094 0)"/>
       <use xlink:href="#DejaVuSans-30" transform="translate(190.869141 0)"/>
      </g>
     </g>
    </g>
    <g id="xtick_4">
     <g id="line2d_7">
      <path d="M 337.009412 390.66 
L 337.009412 41.6 
" clip-path="url(#pd94ee131d5)" style="fill: none; stroke-dasharray: 2.96,1.28; stroke-dashoffset: 0; stroke: #808080; stroke-opacity: 0.7; stroke-width: 0.8"/>
     </g>
     <g id="line2d_8"/>
     <g id="text_4">
      <!-- 1500 -->
      <g style="fill: #262626" transform="translate(324.284412 401.758438) scale(0.1 -0.1)">
       <use xlink:href="#DejaVuSans-31"/>
       <use xlink:href="#DejaVuSans-35" transform="translate(63.623047 0)"/>
       <use xlink:href="#DejaVuSans-30" transform="translate(127.246094 0)"/>
       <use xlink:href="#DejaVuSans-30" transform="translate(190.869141 0)"/>
      </g>
     </g>
    </g>
    <g id="xtick_5">
     <g id="line2d_9">
      <path d="M 422.611792 390.66 
L 422.611792 41.6 
" clip-path="url(#pd94ee131d5)" style="fill: none; stroke-dasharray: 2.96,1.28; stroke-dashoffset: 0; stroke: #808080; stroke-opacity: 0.7; stroke-width: 0.8"/>
     </g>
     <g id="line2d_10"/>
     <g id="text_5">
      <!-- 2000 -->
      <g style="fill: #262626" transform="translate(409.886792 401.758438) scale(0.1 -0.1)">
       <defs>
        <path id="DejaVuSans-32" d="M 1228 531 
L 3431 531 
L 3431 0 
L 469 0 
L 469 531 
Q 828 903 1448 1529 
Q 2069 2156 2228 2338 
Q 2531 2678 2651 2914 
Q 2772 3150 2772 3378 
Q 2772 3750 2511 3984 
Q 2250 4219 1831 4219 
Q 1534 4219 1204 4116 
Q 875 4013 500 3803 
L 500 4441 
Q 881 4594 1212 4672 
Q 1544 4750 1819 4750 
Q 2544 4750 2975 4387 
Q 3406 4025 3406 3419 
Q 3406 3131 3298 2873 
Q 3191 2616 2906 2266 
Q 2828 2175 2409 1742 
Q 1991 1309 1228 531 
z
" transform="scale(0.015625)"/>
       </defs>
       <use xlink:href="#DejaVuSans-32"/>
       <use xlink:href="#DejaVuSans-30" transform="translate(63.623047 0)"/>
       <use xlink:href="#DejaVuSans-30" transform="translate(127.246094 0)"/>
       <use xlink:href="#DejaVuSans-30" transform="translate(190.869141 0)"/>
      </g>
     </g>
    </g>
    <g id="xtick_6">
     <g id="line2d_11">
      <path d="M 508.214172 390.66 
L 508.214172 41.6 
" clip-path="url(#pd94ee131d5)" style="fill: none; stroke-dasharray: 2.96,1.28; stroke-dashoffset: 0; stroke: #808080; stroke-opacity: 0.7; stroke-width: 0.8"/>
     </g>
     <g id="line2d_12"/>
     <g id="text_6">
      <!-- 2500 -->
      <g style="fill: #262626" transform="translate(495.489172 401.758438) scale(0.1 -0.1)">
       <use xlink:href="#DejaVuSans-32"/>
       <use xlink:href="#DejaVuSans-35" transform="translate(63.623047 0)"/>
       <use xlink:href="#DejaVuSans-30" transform="translate(127.246094 0)"/>
       <use xlink:href="#DejaVuSans-30" transform="translate(190.869141 0)"/>
      </g>
     </g>
    </g>
    <g id="xtick_7">
     <g id="line2d_13">
      <path d="M 593.816552 390.66 
L 593.816552 41.6 
" clip-path="url(#pd94ee131d5)" style="fill: none; stroke-dasharray: 2.96,1.28; stroke-dashoffset: 0; stroke: #808080; stroke-opacity: 0.7; stroke-width: 0.8"/>
     </g>
     <g id="line2d_14"/>
     <g id="text_7">
      <!-- 3000 -->
      <g style="fill: #262626" transform="translate(581.091552 401.758438) scale(0.1 -0.1)">
       <defs>
        <path id="DejaVuSans-33" d="M 2597 2516 
Q 3050 2419 3304 2112 
Q 3559 1806 3559 1356 
Q 3559 666 3084 287 
Q 2609 -91 1734 -91 
Q 1441 -91 1130 -33 
Q 819 25 488 141 
L 488 750 
Q 750 597 1062 519 
Q 1375 441 1716 441 
Q 2309 441 2620 675 
Q 2931 909 2931 1356 
Q 2931 1769 2642 2001 
Q 2353 2234 1838 2234 
L 1294 2234 
L 1294 2753 
L 1863 2753 
Q 2328 2753 2575 2939 
Q 2822 3125 2822 3475 
Q 2822 3834 2567 4026 
Q 2313 4219 1838 4219 
Q 1578 4219 1281 4162 
Q 984 4106 628 3988 
L 628 4550 
Q 988 4650 1302 4700 
Q 1616 4750 1894 4750 
Q 2613 4750 3031 4423 
Q 3450 4097 3450 3541 
Q 3450 3153 3228 2886 
Q 3006 2619 2597 2516 
z
" transform="scale(0.015625)"/>
       </defs>
       <use xlink:href="#DejaVuSans-33"/>
       <use xlink:href="#DejaVuSans-30" transform="translate(63.623047 0)"/>
       <use xlink:href="#DejaVuSans-30" transform="translate(127.246094 0)"/>
       <use xlink:href="#DejaVuSans-30" transform="translate(190.869141 0)"/>
      </g>
     </g>
    </g>
    <g id="xtick_8">
     <g id="line2d_15">
      <path d="M 679.418932 390.66 
L 679.418932 41.6 
" clip-path="url(#pd94ee131d5)" style="fill: none; stroke-dasharray: 2.96,1.28; stroke-dashoffset: 0; stroke: #808080; stroke-opacity: 0.7; stroke-width: 0.8"/>
     </g>
     <g id="line2d_16"/>
     <g id="text_8">
      <!-- 3500 -->
      <g style="fill: #262626" transform="translate(666.693932 401.758438) scale(0.1 -0.1)">
       <use xlink:href="#DejaVuSans-33"/>
       <use xlink:href="#DejaVuSans-35" transform="translate(63.623047 0)"/>
       <use xlink:href="#DejaVuSans-30" transform="translate(127.246094 0)"/>
       <use xlink:href="#DejaVuSans-30" transform="translate(190.869141 0)"/>
      </g>
     </g>
    </g>
    <g id="text_9">
     <!-- Training Steps -->
     <g style="fill: #262626" transform="translate(331.120313 416.95625) scale(0.12 -0.12)">
      <defs>
       <path id="DejaVuSans-Bold-54" d="M 31 4666 
L 4331 4666 
L 4331 3756 
L 2784 3756 
L 2784 0 
L 1581 0 
L 1581 3756 
L 31 3756 
L 31 4666 
z
" transform="scale(0.015625)"/>
       <path id="DejaVuSans-Bold-72" d="M 3138 2547 
Q 2991 2616 2845 2648 
Q 2700 2681 2553 2681 
Q 2122 2681 1889 2404 
Q 1656 2128 1656 1613 
L 1656 0 
L 538 0 
L 538 3500 
L 1656 3500 
L 1656 2925 
Q 1872 3269 2151 3426 
Q 2431 3584 2822 3584 
Q 2878 3584 2943 3579 
Q 3009 3575 3134 3559 
L 3138 2547 
z
" transform="scale(0.015625)"/>
       <path id="DejaVuSans-Bold-61" d="M 2106 1575 
Q 1756 1575 1579 1456 
Q 1403 1338 1403 1106 
Q 1403 894 1545 773 
Q 1688 653 1941 653 
Q 2256 653 2472 879 
Q 2688 1106 2688 1447 
L 2688 1575 
L 2106 1575 
z
M 3816 1997 
L 3816 0 
L 2688 0 
L 2688 519 
Q 2463 200 2181 54 
Q 1900 -91 1497 -91 
Q 953 -91 614 226 
Q 275 544 275 1050 
Q 275 1666 698 1953 
Q 1122 2241 2028 2241 
L 2688 2241 
L 2688 2328 
Q 2688 2594 2478 2717 
Q 2269 2841 1825 2841 
Q 1466 2841 1156 2769 
Q 847 2697 581 2553 
L 581 3406 
Q 941 3494 1303 3539 
Q 1666 3584 2028 3584 
Q 2975 3584 3395 3211 
Q 3816 2838 3816 1997 
z
" transform="scale(0.015625)"/>
       <path id="DejaVuSans-Bold-69" d="M 538 3500 
L 1656 3500 
L 1656 0 
L 538 0 
L 538 3500 
z
M 538 4863 
L 1656 4863 
L 1656 3950 
L 538 3950 
L 538 4863 
z
" transform="scale(0.015625)"/>
       <path id="DejaVuSans-Bold-6e" d="M 4056 2131 
L 4056 0 
L 2931 0 
L 2931 347 
L 2931 1631 
Q 2931 2084 2911 2256 
Q 2891 2428 2841 2509 
Q 2775 2619 2662 2680 
Q 2550 2741 2406 2741 
Q 2056 2741 1856 2470 
Q 1656 2200 1656 1722 
L 1656 0 
L 538 0 
L 538 3500 
L 1656 3500 
L 1656 2988 
Q 1909 3294 2193 3439 
Q 2478 3584 2822 3584 
Q 3428 3584 3742 3212 
Q 4056 2841 4056 2131 
z
" transform="scale(0.015625)"/>
       <path id="DejaVuSans-Bold-67" d="M 2919 594 
Q 2688 288 2409 144 
Q 2131 0 1766 0 
Q 1125 0 706 504 
Q 288 1009 288 1791 
Q 288 2575 706 3076 
Q 1125 3578 1766 3578 
Q 2131 3578 2409 3434 
Q 2688 3291 2919 2981 
L 2919 3500 
L 4044 3500 
L 4044 353 
Q 4044 -491 3511 -936 
Q 2978 -1381 1966 -1381 
Q 1638 -1381 1331 -1331 
Q 1025 -1281 716 -1178 
L 716 -306 
Q 1009 -475 1290 -558 
Q 1572 -641 1856 -641 
Q 2406 -641 2662 -400 
Q 2919 -159 2919 353 
L 2919 594 
z
M 2181 2772 
Q 1834 2772 1640 2515 
Q 1447 2259 1447 1791 
Q 1447 1309 1634 1061 
Q 1822 813 2181 813 
Q 2531 813 2725 1069 
Q 2919 1325 2919 1791 
Q 2919 2259 2725 2515 
Q 2531 2772 2181 2772 
z
" transform="scale(0.015625)"/>
       <path id="DejaVuSans-Bold-20" transform="scale(0.015625)"/>
       <path id="DejaVuSans-Bold-53" d="M 3834 4519 
L 3834 3531 
Q 3450 3703 3084 3790 
Q 2719 3878 2394 3878 
Q 1963 3878 1756 3759 
Q 1550 3641 1550 3391 
Q 1550 3203 1689 3098 
Q 1828 2994 2194 2919 
L 2706 2816 
Q 3484 2659 3812 2340 
Q 4141 2022 4141 1434 
Q 4141 663 3683 286 
Q 3225 -91 2284 -91 
Q 1841 -91 1394 -6 
Q 947 78 500 244 
L 500 1259 
Q 947 1022 1364 901 
Q 1781 781 2169 781 
Q 2563 781 2772 912 
Q 2981 1044 2981 1288 
Q 2981 1506 2839 1625 
Q 2697 1744 2272 1838 
L 1806 1941 
Q 1106 2091 782 2419 
Q 459 2747 459 3303 
Q 459 4000 909 4375 
Q 1359 4750 2203 4750 
Q 2588 4750 2994 4692 
Q 3400 4634 3834 4519 
z
" transform="scale(0.015625)"/>
       <path id="DejaVuSans-Bold-74" d="M 1759 4494 
L 1759 3500 
L 2913 3500 
L 2913 2700 
L 1759 2700 
L 1759 1216 
Q 1759 972 1856 886 
Q 1953 800 2241 800 
L 2816 800 
L 2816 0 
L 1856 0 
Q 1194 0 917 276 
Q 641 553 641 1216 
L 641 2700 
L 84 2700 
L 84 3500 
L 641 3500 
L 641 4494 
L 1759 4494 
z
" transform="scale(0.015625)"/>
       <path id="DejaVuSans-Bold-65" d="M 4031 1759 
L 4031 1441 
L 1416 1441 
Q 1456 1047 1700 850 
Q 1944 653 2381 653 
Q 2734 653 3104 758 
Q 3475 863 3866 1075 
L 3866 213 
Q 3469 63 3072 -14 
Q 2675 -91 2278 -91 
Q 1328 -91 801 392 
Q 275 875 275 1747 
Q 275 2603 792 3093 
Q 1309 3584 2216 3584 
Q 3041 3584 3536 3087 
Q 4031 2591 4031 1759 
z
M 2881 2131 
Q 2881 2450 2695 2645 
Q 2509 2841 2209 2841 
Q 1884 2841 1681 2658 
Q 1478 2475 1428 2131 
L 2881 2131 
z
" transform="scale(0.015625)"/>
       <path id="DejaVuSans-Bold-70" d="M 1656 506 
L 1656 -1331 
L 538 -1331 
L 538 3500 
L 1656 3500 
L 1656 2988 
Q 1888 3294 2169 3439 
Q 2450 3584 2816 3584 
Q 3463 3584 3878 3070 
Q 4294 2556 4294 1747 
Q 4294 938 3878 423 
Q 3463 -91 2816 -91 
Q 2450 -91 2169 54 
Q 1888 200 1656 506 
z
M 2400 2772 
Q 2041 2772 1848 2508 
Q 1656 2244 1656 1747 
Q 1656 1250 1848 986 
Q 2041 722 2400 722 
Q 2759 722 2948 984 
Q 3138 1247 3138 1747 
Q 3138 2247 2948 2509 
Q 2759 2772 2400 2772 
z
" transform="scale(0.015625)"/>
       <path id="DejaVuSans-Bold-73" d="M 3272 3391 
L 3272 2541 
Q 2913 2691 2578 2766 
Q 2244 2841 1947 2841 
Q 1628 2841 1473 2761 
Q 1319 2681 1319 2516 
Q 1319 2381 1436 2309 
Q 1553 2238 1856 2203 
L 2053 2175 
Q 2913 2066 3209 1816 
Q 3506 1566 3506 1031 
Q 3506 472 3093 190 
Q 2681 -91 1863 -91 
Q 1516 -91 1145 -36 
Q 775 19 384 128 
L 384 978 
Q 719 816 1070 734 
Q 1422 653 1784 653 
Q 2113 653 2278 743 
Q 2444 834 2444 1013 
Q 2444 1163 2330 1236 
Q 2216 1309 1875 1350 
L 1678 1375 
Q 931 1469 631 1722 
Q 331 1975 331 2491 
Q 331 3047 712 3315 
Q 1094 3584 1881 3584 
Q 2191 3584 2531 3537 
Q 2872 3491 3272 3391 
z
" transform="scale(0.015625)"/>
      </defs>
      <use xlink:href="#DejaVuSans-Bold-54"/>
      <use xlink:href="#DejaVuSans-Bold-72" transform="translate(57.212891 0)"/>
      <use xlink:href="#DejaVuSans-Bold-61" transform="translate(106.529297 0)"/>
      <use xlink:href="#DejaVuSans-Bold-69" transform="translate(174.009766 0)"/>
      <use xlink:href="#DejaVuSans-Bold-6e" transform="translate(208.287109 0)"/>
      <use xlink:href="#DejaVuSans-Bold-69" transform="translate(279.478516 0)"/>
      <use xlink:href="#DejaVuSans-Bold-6e" transform="translate(313.755859 0)"/>
      <use xlink:href="#DejaVuSans-Bold-67" transform="translate(384.947266 0)"/>
      <use xlink:href="#DejaVuSans-Bold-20" transform="translate(456.529297 0)"/>
      <use xlink:href="#DejaVuSans-Bold-53" transform="translate(491.34375 0)"/>
      <use xlink:href="#DejaVuSans-Bold-74" transform="translate(563.365234 0)"/>
      <use xlink:href="#DejaVuSans-Bold-65" transform="translate(611.167969 0)"/>
      <use xlink:href="#DejaVuSans-Bold-70" transform="translate(678.990234 0)"/>
      <use xlink:href="#DejaVuSans-Bold-73" transform="translate(750.572266 0)"/>
     </g>
    </g>
   </g>
   <g id="matplotlib.axis_2">
    <g id="ytick_1">
     <g id="line2d_17">
      <path d="M 50.25 385.17149 
L 709.2 385.17149 
" clip-path="url(#pd94ee131d5)" style="fill: none; stroke-dasharray: 2.96,1.28; stroke-dashoffset: 0; stroke: #808080; stroke-opacity: 0.7; stroke-width: 0.8"/>
     </g>
     <g id="line2d_18"/>
     <g id="text_10">
      <!-- 0 -->
      <g style="fill: #262626" transform="translate(40.3875 388.970709) scale(0.1 -0.1)">
       <use xlink:href="#DejaVuSans-30"/>
      </g>
     </g>
    </g>
    <g id="ytick_2">
     <g id="line2d_19">
      <path d="M 50.25 326.652718 
L 709.2 326.652718 
" clip-path="url(#pd94ee131d5)" style="fill: none; stroke-dasharray: 2.96,1.28; stroke-dashoffset: 0; stroke: #808080; stroke-opacity: 0.7; stroke-width: 0.8"/>
     </g>
     <g id="line2d_20"/>
     <g id="text_11">
      <!-- 50 -->
      <g style="fill: #262626" transform="translate(34.025 330.451936) scale(0.1 -0.1)">
       <use xlink:href="#DejaVuSans-35"/>
       <use xlink:href="#DejaVuSans-30" transform="translate(63.623047 0)"/>
      </g>
     </g>
    </g>
    <g id="ytick_3">
     <g id="line2d_21">
      <path d="M 50.25 268.133945 
L 709.2 268.133945 
" clip-path="url(#pd94ee131d5)" style="fill: none; stroke-dasharray: 2.96,1.28; stroke-dashoffset: 0; stroke: #808080; stroke-opacity: 0.7; stroke-width: 0.8"/>
     </g>
     <g id="line2d_22"/>
     <g id="text_12">
      <!-- 100 -->
      <g style="fill: #262626" transform="translate(27.6625 271.933164) scale(0.1 -0.1)">
       <use xlink:href="#DejaVuSans-31"/>
       <use xlink:href="#DejaVuSans-30" transform="translate(63.623047 0)"/>
       <use xlink:href="#DejaVuSans-30" transform="translate(127.246094 0)"/>
      </g>
     </g>
    </g>
    <g id="ytick_4">
     <g id="line2d_23">
      <path d="M 50.25 209.615172 
L 709.2 209.615172 
" clip-path="url(#pd94ee131d5)" style="fill: none; stroke-dasharray: 2.96,1.28; stroke-dashoffset: 0; stroke: #808080; stroke-opacity: 0.7; stroke-width: 0.8"/>
     </g>
     <g id="line2d_24"/>
     <g id="text_13">
      <!-- 150 -->
      <g style="fill: #262626" transform="translate(27.6625 213.414391) scale(0.1 -0.1)">
       <use xlink:href="#DejaVuSans-31"/>
       <use xlink:href="#DejaVuSans-35" transform="translate(63.623047 0)"/>
       <use xlink:href="#DejaVuSans-30" transform="translate(127.246094 0)"/>
      </g>
     </g>
    </g>
    <g id="ytick_5">
     <g id="line2d_25">
      <path d="M 50.25 151.0964 
L 709.2 151.0964 
" clip-path="url(#pd94ee131d5)" style="fill: none; stroke-dasharray: 2.96,1.28; stroke-dashoffset: 0; stroke: #808080; stroke-opacity: 0.7; stroke-width: 0.8"/>
     </g>
     <g id="line2d_26"/>
     <g id="text_14">
      <!-- 200 -->
      <g style="fill: #262626" transform="translate(27.6625 154.895619) scale(0.1 -0.1)">
       <use xlink:href="#DejaVuSans-32"/>
       <use xlink:href="#DejaVuSans-30" transform="translate(63.623047 0)"/>
       <use xlink:href="#DejaVuSans-30" transform="translate(127.246094 0)"/>
      </g>
     </g>
    </g>
    <g id="ytick_6">
     <g id="line2d_27">
      <path d="M 50.25 92.577627 
L 709.2 92.577627 
" clip-path="url(#pd94ee131d5)" style="fill: none; stroke-dasharray: 2.96,1.28; stroke-dashoffset: 0; stroke: #808080; stroke-opacity: 0.7; stroke-width: 0.8"/>
     </g>
     <g id="line2d_28"/>
     <g id="text_15">
      <!-- 250 -->
      <g style="fill: #262626" transform="translate(27.6625 96.376846) scale(0.1 -0.1)">
       <use xlink:href="#DejaVuSans-32"/>
       <use xlink:href="#DejaVuSans-35" transform="translate(63.623047 0)"/>
       <use xlink:href="#DejaVuSans-30" transform="translate(127.246094 0)"/>
      </g>
     </g>
    </g>
    <g id="text_16">
     <!-- Loss Value -->
     <g style="fill: #262626" transform="translate(21.166875 252.06625) rotate(-90) scale(0.12 -0.12)">
      <defs>
       <path id="DejaVuSans-Bold-4c" d="M 588 4666 
L 1791 4666 
L 1791 909 
L 3903 909 
L 3903 0 
L 588 0 
L 588 4666 
z
" transform="scale(0.015625)"/>
       <path id="DejaVuSans-Bold-6f" d="M 2203 2784 
Q 1831 2784 1636 2517 
Q 1441 2250 1441 1747 
Q 1441 1244 1636 976 
Q 1831 709 2203 709 
Q 2569 709 2762 976 
Q 2956 1244 2956 1747 
Q 2956 2250 2762 2517 
Q 2569 2784 2203 2784 
z
M 2203 3584 
Q 3106 3584 3614 3096 
Q 4122 2609 4122 1747 
Q 4122 884 3614 396 
Q 3106 -91 2203 -91 
Q 1297 -91 786 396 
Q 275 884 275 1747 
Q 275 2609 786 3096 
Q 1297 3584 2203 3584 
z
" transform="scale(0.015625)"/>
       <path id="DejaVuSans-Bold-56" d="M 31 4666 
L 1241 4666 
L 2478 1222 
L 3713 4666 
L 4922 4666 
L 3194 0 
L 1759 0 
L 31 4666 
z
" transform="scale(0.015625)"/>
       <path id="DejaVuSans-Bold-6c" d="M 538 4863 
L 1656 4863 
L 1656 0 
L 538 0 
L 538 4863 
z
" transform="scale(0.015625)"/>
       <path id="DejaVuSans-Bold-75" d="M 500 1363 
L 500 3500 
L 1625 3500 
L 1625 3150 
Q 1625 2866 1622 2436 
Q 1619 2006 1619 1863 
Q 1619 1441 1641 1255 
Q 1663 1069 1716 984 
Q 1784 875 1895 815 
Q 2006 756 2150 756 
Q 2500 756 2700 1025 
Q 2900 1294 2900 1772 
L 2900 3500 
L 4019 3500 
L 4019 0 
L 2900 0 
L 2900 506 
Q 2647 200 2364 54 
Q 2081 -91 1741 -91 
Q 1134 -91 817 281 
Q 500 653 500 1363 
z
" transform="scale(0.015625)"/>
      </defs>
      <use xlink:href="#DejaVuSans-Bold-4c"/>
      <use xlink:href="#DejaVuSans-Bold-6f" transform="translate(63.720703 0)"/>
      <use xlink:href="#DejaVuSans-Bold-73" transform="translate(132.421875 0)"/>
      <use xlink:href="#DejaVuSans-Bold-73" transform="translate(191.943359 0)"/>
      <use xlink:href="#DejaVuSans-Bold-20" transform="translate(251.464844 0)"/>
      <use xlink:href="#DejaVuSans-Bold-56" transform="translate(286.279297 0)"/>
      <use xlink:href="#DejaVuSans-Bold-61" transform="translate(358.171875 0)"/>
      <use xlink:href="#DejaVuSans-Bold-6c" transform="translate(425.652344 0)"/>
      <use xlink:href="#DejaVuSans-Bold-75" transform="translate(459.929688 0)"/>
      <use xlink:href="#DejaVuSans-Bold-65" transform="translate(531.121094 0)"/>
     </g>
    </g>
   </g>
   <g id="line2d_29">
    <path d="M 80.202273 257.822556 
L 80.887092 264.593754 
L 81.91432 278.000014 
L 82.427935 284.068961 
L 82.770344 286.41507 
L 82.941549 286.835825 
L 83.112754 286.746711 
L 83.455163 285.518001 
L 83.797573 284.204204 
L 83.968777 283.898904 
L 84.139982 283.880117 
L 84.482392 284.51237 
L 85.167211 286.39022 
L 85.50962 286.812806 
L 85.85203 286.825878 
L 86.879258 286.39564 
L 87.392873 286.561152 
L 88.077692 286.837308 
L 88.591306 286.836102 
L 89.618535 286.723013 
L 91.672992 286.842692 
L 106.225396 286.861158 
L 127.454786 286.951432 
L 131.734905 287.237463 
L 134.645386 287.616939 
L 136.871048 287.860582 
L 141.322372 288.057696 
L 145.260081 288.304465 
L 147.828153 288.595844 
L 152.621886 289.140877 
L 153.820319 289.434444 
L 156.388391 290.434851 
L 158.271643 290.712605 
L 160.497305 291.188972 
L 162.380557 291.500219 
L 164.092605 292.033152 
L 166.489472 292.923105 
L 168.201519 293.225146 
L 169.571157 293.565395 
L 170.769591 294.000375 
L 183.781152 297.105648 
L 187.718862 297.917104 
L 189.602114 298.676501 
L 195.423076 301.165219 
L 199.703195 302.687032 
L 203.12729 304.229936 
L 204.154519 305.118147 
L 206.208976 307.064859 
L 208.092228 308.32275 
L 209.975481 309.600794 
L 214.598009 312.518955 
L 217.166081 314.3167 
L 220.247766 316.593174 
L 221.4462 317.326891 
L 223.329452 318.714051 
L 226.411138 320.783714 
L 228.979209 322.706745 
L 230.862461 324.800308 
L 232.232099 325.637966 
L 234.628966 326.866488 
L 236.169809 327.725603 
L 239.251495 329.437811 
L 242.33318 330.452107 
L 243.531614 330.905896 
L 245.414866 331.847125 
L 245.92848 332.014504 
L 247.469323 332.669683 
L 248.667756 333.222346 
L 250.379804 333.748333 
L 252.263056 334.571923 
L 253.290285 335.000228 
L 255.002332 335.326597 
L 260.994499 336.342251 
L 262.706547 337.217492 
L 263.56257 337.414078 
L 268.013894 339.453976 
L 268.698713 339.726983 
L 269.554737 339.952059 
L 271.09558 340.413701 
L 271.609194 340.59634 
L 272.122808 340.807571 
L 273.150037 341.271584 
L 274.862085 341.877849 
L 275.546904 342.055675 
L 276.402927 342.266107 
L 277.430156 342.591922 
L 279.484613 343.210291 
L 280.340637 343.318812 
L 281.196661 343.531717 
L 282.395094 343.837482 
L 282.908708 344.017928 
L 283.251118 344.069357 
L 284.278346 344.403454 
L 285.647984 345.009442 
L 287.188827 345.573981 
L 288.044851 345.955747 
L 288.72967 346.142757 
L 289.756899 346.62728 
L 291.468946 347.418002 
L 292.66738 347.810878 
L 298.830751 349.487663 
L 299.344365 349.54493 
L 301.398822 349.848313 
L 301.741232 349.9659 
L 302.083641 350.097426 
L 302.939665 350.653035 
L 304.651713 351.793002 
L 307.904603 353.071493 
L 309.274241 353.605117 
L 310.130265 354.023229 
L 313.211951 355.132321 
L 313.725565 355.327793 
L 314.581589 355.619575 
L 315.095203 355.860674 
L 316.807251 356.50439 
L 323.997851 358.157847 
L 324.68267 358.274443 
L 325.881103 358.456969 
L 326.565922 358.530849 
L 328.791584 359.10367 
L 331.702065 360.437493 
L 333.242908 360.798775 
L 333.756522 360.868109 
L 334.954955 361.085128 
L 335.297365 361.098577 
L 338.207846 361.697715 
L 339.577484 362.081023 
L 340.091098 362.201932 
L 340.433508 362.314818 
L 343.515193 362.640702 
L 343.857603 362.634831 
L 344.200012 362.768982 
L 344.713627 362.797627 
L 345.056036 362.848031 
L 351.219407 363.523618 
L 351.904227 363.682653 
L 352.417841 363.714497 
L 354.814707 363.953144 
L 355.157117 364.012901 
L 367.14145 364.906702 
L 369.367112 365.018987 
L 370.051931 365.088098 
L 370.394341 365.054296 
L 375.016869 365.708377 
L 375.530483 365.852895 
L 376.215302 366.056053 
L 377.242531 366.121804 
L 377.92735 366.296869 
L 385.11795 367.3029 
L 385.460359 367.290885 
L 386.145178 367.39079 
L 389.740478 367.833383 
L 390.254093 367.818174 
L 395.047826 368.16438 
L 395.732645 368.194938 
L 396.417464 368.226306 
L 397.615897 368.391921 
L 398.129512 368.364482 
L 398.300716 368.440353 
L 398.643126 368.409236 
L 399.841559 368.468734 
L 400.697583 368.504091 
L 402.067221 368.584073 
L 402.923245 368.63266 
L 407.545773 368.969594 
L 416.106011 369.474781 
L 416.448421 369.507037 
L 417.47565 369.605723 
L 417.989264 369.609469 
L 419.016492 369.799521 
L 420.214926 369.965979 
L 420.557335 369.973318 
L 428.603959 370.276366 
L 430.144802 370.376603 
L 431.000826 370.341369 
L 431.343235 370.391354 
L 433.226487 370.489043 
L 433.568897 370.486478 
L 435.794559 370.480888 
L 435.965764 370.548456 
L 436.136968 370.444201 
L 437.335402 370.589932 
L 438.020221 370.618294 
L 438.36263 370.621986 
L 438.876245 370.592756 
L 439.218654 370.646446 
L 446.238049 370.817413 
L 446.580459 370.790929 
L 447.094073 370.933288 
L 447.607687 370.900614 
L 450.689373 371.014756 
L 451.202987 370.980768 
L 451.545397 371.081365 
L 451.887806 371.032347 
L 452.230216 371.046451 
L 452.572625 371.066893 
L 458.222382 371.192235 
L 458.393587 371.143691 
L 458.735997 371.239922 
L 458.907201 371.170496 
L 459.420816 371.24628 
L 461.646478 371.234289 
L 462.331297 371.262341 
L 468.152258 371.379762 
L 469.008282 371.470445 
L 469.350692 371.516285 
L 469.521897 371.655696 
L 470.206716 371.730169 
L 472.089968 371.903543 
L 472.432377 371.863258 
L 472.945992 371.908347 
L 473.288401 371.923679 
L 474.486835 371.94208 
L 475.000449 372.037978 
L 476.370087 372.159561 
L 477.739725 372.240512 
L 478.253339 372.300831 
L 478.766954 372.36506 
L 479.451773 372.395014 
L 481.335025 372.435731 
L 481.50623 372.387718 
L 482.019844 372.516567 
L 482.362254 372.466609 
L 482.704663 372.496817 
L 487.498396 372.560003 
L 487.840806 372.516342 
L 488.183215 372.5664 
L 493.661768 372.78747 
L 493.832972 372.860227 
L 494.175382 372.854561 
L 496.914658 372.832316 
L 497.770682 372.906939 
L 498.455501 372.963692 
L 498.79791 372.878488 
L 499.311525 372.940049 
L 499.653934 373.002251 
L 499.996344 372.980625 
L 502.222006 373.036023 
L 502.564415 373.006986 
L 504.447668 373.084064 
L 504.790077 373.07014 
L 505.474896 373.11608 
L 505.817306 373.054352 
L 506.159715 372.994793 
L 506.33092 373.100019 
L 506.502125 372.989676 
L 507.015739 373.131499 
L 516.260796 373.401556 
L 516.603205 373.487767 
L 531.326815 373.798332 
L 531.669224 373.748652 
L 532.011634 373.800595 
L 532.525248 373.827194 
L 532.867658 373.764568 
L 533.723681 373.836786 
L 540.229462 373.817048 
L 540.571872 373.879402 
L 541.427896 373.832743 
L 541.94151 373.897436 
L 542.455124 373.882841 
L 543.311148 373.907187 
L 544.509581 373.856261 
L 544.851991 373.822822 
L 545.1944 373.919234 
L 546.392834 373.889576 
L 547.077653 373.905089 
L 548.960905 373.890326 
L 549.303315 373.900444 
L 549.988134 373.914974 
L 550.330543 373.911299 
L 551.015362 373.937321 
L 551.700181 373.910521 
L 552.042591 373.907514 
L 552.385 373.86013 
L 552.72741 373.944942 
L 589.536433 374.057015 
L 590.563662 374.122997 
L 602.890404 374.203901 
L 603.404019 374.206272 
L 604.260042 374.211446 
L 620.866904 374.26788 
L 621.209314 374.287546 
L 631.481599 374.272333 
L 631.824009 374.306654 
L 660.243999 374.440513 
L 660.586408 374.523866 
L 664.695323 374.697335 
L 665.208937 374.676464 
L 665.893756 374.714679 
L 666.236166 374.651729 
L 666.578575 374.714644 
L 679.247727 374.793636 
L 679.247727 374.793636 
" clip-path="url(#pd94ee131d5)" style="fill: none; stroke: #2e86c1; stroke-opacity: 0.9; stroke-width: 2; stroke-linecap: round"/>
   </g>
   <g id="line2d_30">
    <path d="M 80.202273 244.726436 
L 137.898277 244.726436 
L 138.069482 57.466364 
L 142.520805 57.466364 
L 142.69201 59.807115 
L 144.404058 59.807115 
L 144.575262 57.466364 
L 154.162729 57.466364 
L 154.333934 244.726436 
L 154.847548 244.726436 
L 155.018753 57.466364 
L 157.929234 57.466364 
L 158.100438 244.726436 
L 289.928103 244.726436 
L 290.099308 241.21531 
L 290.270513 241.21531 
L 290.441718 244.726436 
L 299.51557 244.726436 
L 299.686775 245.896811 
L 299.85798 245.896811 
L 300.029184 244.726436 
L 333.585317 244.726436 
L 333.756522 243.55606 
L 334.441341 243.55606 
L 334.612546 245.896811 
L 335.297365 245.896811 
L 335.46857 244.726436 
L 336.324593 244.726436 
L 336.495798 243.55606 
L 336.838208 243.55606 
L 337.009412 245.896811 
L 337.180617 243.55606 
L 337.694231 243.55606 
L 337.865436 242.385685 
L 339.406279 242.385685 
L 339.577484 244.726436 
L 354.301093 244.726436 
L 354.472298 245.896811 
L 354.643503 244.726436 
L 354.814707 244.726436 
L 354.985912 245.896811 
L 355.157117 244.726436 
L 355.328322 245.896811 
L 355.499526 245.896811 
L 355.670731 244.726436 
L 355.841936 245.896811 
L 356.013141 244.726436 
L 356.184346 244.726436 
L 356.35555 243.55606 
L 358.923622 243.55606 
L 359.094826 245.896811 
L 359.437236 245.896811 
L 359.608441 243.55606 
L 359.779645 245.896811 
L 361.320488 245.896811 
L 361.491693 243.55606 
L 363.032536 243.55606 
L 363.203741 238.874559 
L 363.717355 238.874559 
L 363.88856 240.044934 
L 364.744584 240.044934 
L 365.086993 236.533808 
L 367.655064 236.533808 
L 367.826269 220.148551 
L 367.997474 238.874559 
L 370.73675 238.874559 
L 370.907955 240.044934 
L 371.250364 240.044934 
L 371.421569 236.533808 
L 371.935183 236.533808 
L 372.106388 235.363432 
L 373.647231 235.363432 
L 373.818436 240.044934 
L 374.67446 240.044934 
L 374.845664 238.874559 
L 377.413736 238.874559 
L 377.584941 237.704183 
L 378.26976 237.704183 
L 378.440964 240.044934 
L 378.954579 240.044934 
L 379.125783 238.874559 
L 379.639398 238.874559 
L 379.810602 240.044934 
L 380.153012 240.044934 
L 380.324217 238.874559 
L 381.18024 238.874559 
L 381.351445 240.044934 
L 385.460359 240.044934 
L 385.631564 238.874559 
L 387.514817 238.874559 
L 387.857226 236.533808 
L 390.425297 236.533808 
L 390.596502 237.704183 
L 391.96614 237.704183 
L 392.137345 236.533808 
L 393.335778 236.533808 
L 393.506983 237.704183 
L 394.363007 237.704183 
L 394.534212 240.044934 
L 397.273488 240.044934 
L 397.444693 237.704183 
L 398.985535 237.704183 
L 399.15674 236.533808 
L 399.327945 236.533808 
L 399.49915 237.704183 
L 400.526378 237.704183 
L 400.697583 236.533808 
L 402.580835 236.533808 
L 402.75204 237.704183 
L 404.292883 237.704183 
L 404.464088 236.533808 
L 404.635293 236.533808 
L 404.806497 237.704183 
L 404.977702 237.704183 
L 405.148907 236.533808 
L 405.320112 236.533808 
L 405.491316 238.874559 
L 406.68975 238.874559 
L 406.860954 240.044934 
L 407.888183 240.044934 
L 408.059388 237.704183 
L 408.401797 237.704183 
L 408.573002 240.044934 
L 409.429026 240.044934 
L 409.600231 237.704183 
L 410.28505 237.704183 
L 410.456254 242.385685 
L 410.627459 242.385685 
L 410.798664 243.55606 
L 411.654688 243.55606 
L 411.825892 244.726436 
L 412.168302 244.726436 
L 412.339507 247.067187 
L 414.565169 247.067187 
L 414.736373 245.896811 
L 415.763602 245.896811 
L 415.934807 247.067187 
L 417.13324 247.067187 
L 417.304445 244.726436 
L 418.502878 244.726436 
L 418.674083 247.067187 
L 419.358902 247.067187 
L 419.530107 245.896811 
L 426.207092 245.896811 
L 426.378297 243.55606 
L 427.91914 243.55606 
L 428.090345 245.896811 
L 429.973597 245.896811 
L 430.144802 244.726436 
L 431.17203 244.726436 
L 431.343235 245.896811 
L 433.055283 245.896811 
L 433.226487 244.726436 
L 434.76733 244.726436 
L 434.938535 245.896811 
L 435.623354 245.896811 
L 435.794559 244.726436 
L 440.245883 244.726436 
L 440.417087 242.385685 
L 440.759497 242.385685 
L 440.930702 241.21531 
L 443.327568 241.21531 
L 443.498773 237.704183 
L 447.094073 237.704183 
L 447.265278 236.533808 
L 447.607687 236.533808 
L 447.778892 237.704183 
L 453.771059 237.704183 
L 453.942263 236.533808 
L 456.167925 236.533808 
L 456.33913 237.704183 
L 467.638644 237.704183 
L 467.809849 238.874559 
L 470.206716 238.874559 
L 470.37792 237.704183 
L 470.549125 241.21531 
L 471.062739 241.21531 
L 471.233944 244.726436 
L 472.774787 244.726436 
L 472.945992 245.896811 
L 473.802016 245.896811 
L 473.97322 242.385685 
L 474.658039 242.385685 
L 474.829244 245.896811 
L 475.171654 245.896811 
L 475.342858 250.578313 
L 476.027677 250.578313 
L 476.370087 243.55606 
L 476.541292 242.385685 
L 478.082135 242.385685 
L 478.253339 237.704183 
L 478.766954 237.704183 
L 478.938158 242.385685 
L 482.704663 242.385685 
L 482.875868 237.704183 
L 485.957553 237.704183 
L 486.128758 238.874559 
L 487.327192 238.874559 
L 487.498396 237.704183 
L 488.183215 237.704183 
L 488.35442 240.044934 
L 490.922491 240.044934 
L 491.093696 238.874559 
L 492.805744 238.874559 
L 492.976949 237.704183 
L 493.148153 237.704183 
L 493.319358 238.874559 
L 498.626706 238.874559 
L 498.79791 234.193057 
L 501.537187 234.193057 
L 501.708391 236.533808 
L 501.879596 236.533808 
L 502.050801 234.193057 
L 504.276463 234.193057 
L 504.447668 236.533808 
L 504.618872 234.193057 
L 504.790077 234.193057 
L 504.961282 235.363432 
L 505.474896 235.363432 
L 505.646101 238.874559 
L 508.898991 238.874559 
L 509.070196 237.704183 
L 511.638267 237.704183 
L 511.809472 238.874559 
L 512.494291 238.874559 
L 512.665496 237.704183 
L 512.836701 240.044934 
L 513.007906 240.044934 
L 513.17911 238.874559 
L 513.350315 240.044934 
L 513.52152 237.704183 
L 514.719953 237.704183 
L 514.891158 238.874559 
L 515.747182 238.874559 
L 515.918386 241.21531 
L 516.603205 241.21531 
L 516.77441 240.044934 
L 517.459229 240.044934 
L 517.630434 241.21531 
L 517.972844 241.21531 
L 518.144048 240.044934 
L 519.342482 240.044934 
L 519.513686 238.874559 
L 520.027301 238.874559 
L 520.198505 240.044934 
L 520.883324 240.044934 
L 521.054529 238.874559 
L 521.225734 240.044934 
L 521.568143 240.044934 
L 521.739348 238.874559 
L 525.848262 238.874559 
L 526.019467 240.044934 
L 528.587539 240.044934 
L 528.758743 241.21531 
L 529.272358 241.21531 
L 529.443562 242.385685 
L 529.614767 241.21531 
L 529.957177 241.21531 
L 530.128381 242.385685 
L 532.867658 242.385685 
L 533.038862 241.21531 
L 534.922115 241.21531 
L 535.09332 240.044934 
L 535.264524 240.044934 
L 535.435729 241.21531 
L 535.949343 241.21531 
L 536.120548 242.385685 
L 538.34621 242.385685 
L 538.517415 241.21531 
L 538.688619 242.385685 
L 538.859824 242.385685 
L 539.031029 241.21531 
L 540.400667 241.21531 
L 540.571872 240.044934 
L 540.743077 240.044934 
L 540.914281 241.21531 
L 541.085486 240.044934 
L 541.256691 240.044934 
L 541.427896 241.21531 
L 541.770305 241.21531 
L 541.94151 240.044934 
L 542.455124 240.044934 
L 542.626329 241.21531 
L 542.797534 240.044934 
L 542.968738 240.044934 
L 543.139943 241.21531 
L 543.653558 241.21531 
L 543.824762 240.044934 
L 544.167172 240.044934 
L 544.338377 241.21531 
L 544.509581 240.044934 
L 544.680786 240.044934 
L 544.851991 241.21531 
L 545.365605 241.21531 
L 545.53681 240.044934 
L 545.708015 240.044934 
L 545.879219 241.21531 
L 546.050424 241.21531 
L 546.392834 238.874559 
L 547.591267 238.874559 
L 547.762472 240.044934 
L 547.933677 238.874559 
L 548.104881 238.874559 
L 548.276086 240.044934 
L 548.618496 240.044934 
L 548.7897 238.874559 
L 549.13211 238.874559 
L 549.303315 240.044934 
L 549.645724 240.044934 
L 549.816929 238.874559 
L 550.159338 238.874559 
L 550.330543 240.044934 
L 550.501748 238.874559 
L 550.672953 238.874559 
L 550.844157 237.704183 
L 551.357772 237.704183 
L 551.528976 238.874559 
L 551.871386 238.874559 
L 552.042591 237.704183 
L 552.213796 237.704183 
L 552.385 238.874559 
L 552.556205 238.874559 
L 552.72741 237.704183 
L 554.439457 237.704183 
L 554.610662 236.533808 
L 585.256314 236.533808 
L 585.427519 237.704183 
L 586.112338 237.704183 
L 586.283543 236.533808 
L 587.481976 236.533808 
L 587.653181 233.022681 
L 589.022819 233.022681 
L 589.194024 234.193057 
L 589.707638 234.193057 
L 589.878843 233.022681 
L 591.248481 233.022681 
L 591.419685 231.852306 
L 603.575223 231.852306 
L 603.746428 233.022681 
L 604.944862 233.022681 
L 605.116066 231.852306 
L 634.905694 231.852306 
L 635.076899 230.68193 
L 636.617742 230.68193 
L 636.788947 231.852306 
L 638.158585 231.852306 
L 638.32979 230.68193 
L 640.555452 230.68193 
L 640.726656 231.852306 
L 641.069066 231.852306 
L 641.240271 230.68193 
L 659.21677 230.68193 
L 659.387975 231.852306 
L 666.236166 231.852306 
L 666.40737 233.022681 
L 667.263394 233.022681 
L 667.434599 231.852306 
L 670.173875 231.852306 
L 670.34508 233.022681 
L 670.516285 233.022681 
L 670.687489 231.852306 
L 672.057127 231.852306 
L 672.228332 233.022681 
L 673.255561 233.022681 
L 673.426765 231.852306 
L 679.247727 231.852306 
L 679.247727 231.852306 
" clip-path="url(#pd94ee131d5)" style="fill: none; stroke-dasharray: 7.4,3.2; stroke-dashoffset: 0; stroke: #e74c3c; stroke-opacity: 0.9; stroke-width: 2"/>
   </g>
   <g id="patch_3">
    <path d="M 50.25 390.66 
L 50.25 41.6 
" style="fill: none; stroke: #ffffff; stroke-width: 1.5; stroke-linejoin: miter; stroke-linecap: square"/>
   </g>
   <g id="patch_4">
    <path d="M 709.2 390.66 
L 709.2 41.6 
" style="fill: none; stroke: #ffffff; stroke-width: 1.5; stroke-linejoin: miter; stroke-linecap: square"/>
   </g>
   <g id="patch_5">
    <path d="M 50.25 390.66 
L 709.2 390.66 
" style="fill: none; stroke: #ffffff; stroke-width: 1.5; stroke-linejoin: miter; stroke-linecap: square"/>
   </g>
   <g id="patch_6">
    <path d="M 50.25 41.6 
L 709.2 41.6 
" style="fill: none; stroke: #ffffff; stroke-width: 1.5; stroke-linejoin: miter; stroke-linecap: square"/>
   </g>
   <g id="text_17">
    <!-- Training Progress - Soft vs Hard Gates -->
    <g style="fill: #262626" transform="translate(228.563281 21.6) scale(0.14 -0.14)">
     <defs>
      <path id="DejaVuSans-Bold-50" d="M 588 4666 
L 2584 4666 
Q 3475 4666 3951 4270 
Q 4428 3875 4428 3144 
Q 4428 2409 3951 2014 
Q 3475 1619 2584 1619 
L 1791 1619 
L 1791 0 
L 588 0 
L 588 4666 
z
M 1791 3794 
L 1791 2491 
L 2456 2491 
Q 2806 2491 2997 2661 
Q 3188 2831 3188 3144 
Q 3188 3456 2997 3625 
Q 2806 3794 2456 3794 
L 1791 3794 
z
" transform="scale(0.015625)"/>
      <path id="DejaVuSans-Bold-2d" d="M 347 2297 
L 2309 2297 
L 2309 1388 
L 347 1388 
L 347 2297 
z
" transform="scale(0.015625)"/>
      <path id="DejaVuSans-Bold-66" d="M 2841 4863 
L 2841 4128 
L 2222 4128 
Q 1984 4128 1890 4042 
Q 1797 3956 1797 3744 
L 1797 3500 
L 2753 3500 
L 2753 2700 
L 1797 2700 
L 1797 0 
L 678 0 
L 678 2700 
L 122 2700 
L 122 3500 
L 678 3500 
L 678 3744 
Q 678 4316 997 4589 
Q 1316 4863 1984 4863 
L 2841 4863 
z
" transform="scale(0.015625)"/>
      <path id="DejaVuSans-Bold-76" d="M 97 3500 
L 1216 3500 
L 2088 1081 
L 2956 3500 
L 4078 3500 
L 2700 0 
L 1472 0 
L 97 3500 
z
" transform="scale(0.015625)"/>
      <path id="DejaVuSans-Bold-48" d="M 588 4666 
L 1791 4666 
L 1791 2888 
L 3566 2888 
L 3566 4666 
L 4769 4666 
L 4769 0 
L 3566 0 
L 3566 1978 
L 1791 1978 
L 1791 0 
L 588 0 
L 588 4666 
z
" transform="scale(0.015625)"/>
      <path id="DejaVuSans-Bold-64" d="M 2919 2988 
L 2919 4863 
L 4044 4863 
L 4044 0 
L 2919 0 
L 2919 506 
Q 2688 197 2409 53 
Q 2131 -91 1766 -91 
Q 1119 -91 703 423 
Q 288 938 288 1747 
Q 288 2556 703 3070 
Q 1119 3584 1766 3584 
Q 2128 3584 2408 3439 
Q 2688 3294 2919 2988 
z
M 2181 722 
Q 2541 722 2730 984 
Q 2919 1247 2919 1747 
Q 2919 2247 2730 2509 
Q 2541 2772 2181 2772 
Q 1825 2772 1636 2509 
Q 1447 2247 1447 1747 
Q 1447 1247 1636 984 
Q 1825 722 2181 722 
z
" transform="scale(0.015625)"/>
      <path id="DejaVuSans-Bold-47" d="M 4781 347 
Q 4331 128 3847 18 
Q 3363 -91 2847 -91 
Q 1681 -91 1000 561 
Q 319 1213 319 2328 
Q 319 3456 1012 4103 
Q 1706 4750 2913 4750 
Q 3378 4750 3804 4662 
Q 4231 4575 4609 4403 
L 4609 3438 
Q 4219 3659 3833 3768 
Q 3447 3878 3059 3878 
Q 2341 3878 1952 3476 
Q 1563 3075 1563 2328 
Q 1563 1588 1938 1184 
Q 2313 781 3003 781 
Q 3191 781 3352 804 
Q 3513 828 3641 878 
L 3641 1784 
L 2906 1784 
L 2906 2591 
L 4781 2591 
L 4781 347 
z
" transform="scale(0.015625)"/>
     </defs>
     <use xlink:href="#DejaVuSans-Bold-54"/>
     <use xlink:href="#DejaVuSans-Bold-72" transform="translate(57.212891 0)"/>
     <use xlink:href="#DejaVuSans-Bold-61" transform="translate(106.529297 0)"/>
     <use xlink:href="#DejaVuSans-Bold-69" transform="translate(174.009766 0)"/>
     <use xlink:href="#DejaVuSans-Bold-6e" transform="translate(208.287109 0)"/>
     <use xlink:href="#DejaVuSans-Bold-69" transform="translate(279.478516 0)"/>
     <use xlink:href="#DejaVuSans-Bold-6e" transform="translate(313.755859 0)"/>
     <use xlink:href="#DejaVuSans-Bold-67" transform="translate(384.947266 0)"/>
     <use xlink:href="#DejaVuSans-Bold-20" transform="translate(456.529297 0)"/>
     <use xlink:href="#DejaVuSans-Bold-50" transform="translate(491.34375 0)"/>
     <use xlink:href="#DejaVuSans-Bold-72" transform="translate(564.634766 0)"/>
     <use xlink:href="#DejaVuSans-Bold-6f" transform="translate(613.951172 0)"/>
     <use xlink:href="#DejaVuSans-Bold-67" transform="translate(682.652344 0)"/>
     <use xlink:href="#DejaVuSans-Bold-72" transform="translate(754.234375 0)"/>
     <use xlink:href="#DejaVuSans-Bold-65" transform="translate(803.550781 0)"/>
     <use xlink:href="#DejaVuSans-Bold-73" transform="translate(871.373047 0)"/>
     <use xlink:href="#DejaVuSans-Bold-73" transform="translate(930.894531 0)"/>
     <use xlink:href="#DejaVuSans-Bold-20" transform="translate(990.416016 0)"/>
     <use xlink:href="#DejaVuSans-Bold-2d" transform="translate(1025.230469 0)"/>
     <use xlink:href="#DejaVuSans-Bold-20" transform="translate(1066.734375 0)"/>
     <use xlink:href="#DejaVuSans-Bold-53" transform="translate(1101.548828 0)"/>
     <use xlink:href="#DejaVuSans-Bold-6f" transform="translate(1173.570312 0)"/>
     <use xlink:href="#DejaVuSans-Bold-66" transform="translate(1242.271484 0)"/>
     <use xlink:href="#DejaVuSans-Bold-74" transform="translate(1285.777344 0)"/>
     <use xlink:href="#DejaVuSans-Bold-20" transform="translate(1333.580078 0)"/>
     <use xlink:href="#DejaVuSans-Bold-76" transform="translate(1368.394531 0)"/>
     <use xlink:href="#DejaVuSans-Bold-73" transform="translate(1433.580078 0)"/>
     <use xlink:href="#DejaVuSans-Bold-20" transform="translate(1493.101562 0)"/>
     <use xlink:href="#DejaVuSans-Bold-48" transform="translate(1527.916016 0)"/>
     <use xlink:href="#DejaVuSans-Bold-61" transform="translate(1611.607422 0)"/>
     <use xlink:href="#DejaVuSans-Bold-72" transform="translate(1679.087891 0)"/>
     <use xlink:href="#DejaVuSans-Bold-64" transform="translate(1728.404297 0)"/>
     <use xlink:href="#DejaVuSans-Bold-20" transform="translate(1799.986328 0)"/>
     <use xlink:href="#DejaVuSans-Bold-47" transform="translate(1834.800781 0)"/>
     <use xlink:href="#DejaVuSans-Bold-61" transform="translate(1916.880859 0)"/>
     <use xlink:href="#DejaVuSans-Bold-74" transform="translate(1984.361328 0)"/>
     <use xlink:href="#DejaVuSans-Bold-65" transform="translate(2032.164062 0)"/>
     <use xlink:href="#DejaVuSans-Bold-73" transform="translate(2099.986328 0)"/>
    </g>
   </g>
   <g id="legend_1">
    <g id="patch_7">
     <path d="M 590.817188 80.95625 
L 704.2 80.95625 
Q 706.2 80.95625 706.2 78.95625 
L 706.2 50.6 
Q 706.2 48.6 704.2 48.6 
L 590.817188 48.6 
Q 588.817188 48.6 588.817188 50.6 
L 588.817188 78.95625 
Q 588.817188 80.95625 590.817188 80.95625 
z
" style="fill: #464649; opacity: 0.5; stroke: #464649; stroke-linejoin: miter"/>
    </g>
    <g id="patch_8">
     <path d="M 588.817188 78.95625 
L 702.2 78.95625 
Q 704.2 78.95625 704.2 76.95625 
L 704.2 48.6 
Q 704.2 46.6 702.2 46.6 
L 588.817188 46.6 
Q 586.817188 46.6 586.817188 48.6 
L 586.817188 76.95625 
Q 586.817188 78.95625 588.817188 78.95625 
z
" style="fill: #eaeaf2; stroke: #cccccc; stroke-linejoin: miter"/>
    </g>
    <g id="line2d_31">
     <path d="M 590.817188 54.698438 
L 600.817188 54.698438 
L 610.817188 54.698438 
" style="fill: none; stroke: #2e86c1; stroke-opacity: 0.9; stroke-width: 2; stroke-linecap: round"/>
    </g>
    <g id="text_18">
     <!-- Soft Gates Loss -->
     <g style="fill: #262626" transform="translate(618.817188 58.198438) scale(0.1 -0.1)">
      <defs>
       <path id="DejaVuSans-53" d="M 3425 4513 
L 3425 3897 
Q 3066 4069 2747 4153 
Q 2428 4238 2131 4238 
Q 1616 4238 1336 4038 
Q 1056 3838 1056 3469 
Q 1056 3159 1242 3001 
Q 1428 2844 1947 2747 
L 2328 2669 
Q 3034 2534 3370 2195 
Q 3706 1856 3706 1288 
Q 3706 609 3251 259 
Q 2797 -91 1919 -91 
Q 1588 -91 1214 -16 
Q 841 59 441 206 
L 441 856 
Q 825 641 1194 531 
Q 1563 422 1919 422 
Q 2459 422 2753 634 
Q 3047 847 3047 1241 
Q 3047 1584 2836 1778 
Q 2625 1972 2144 2069 
L 1759 2144 
Q 1053 2284 737 2584 
Q 422 2884 422 3419 
Q 422 4038 858 4394 
Q 1294 4750 2059 4750 
Q 2388 4750 2728 4690 
Q 3069 4631 3425 4513 
z
" transform="scale(0.015625)"/>
       <path id="DejaVuSans-6f" d="M 1959 3097 
Q 1497 3097 1228 2736 
Q 959 2375 959 1747 
Q 959 1119 1226 758 
Q 1494 397 1959 397 
Q 2419 397 2687 759 
Q 2956 1122 2956 1747 
Q 2956 2369 2687 2733 
Q 2419 3097 1959 3097 
z
M 1959 3584 
Q 2709 3584 3137 3096 
Q 3566 2609 3566 1747 
Q 3566 888 3137 398 
Q 2709 -91 1959 -91 
Q 1206 -91 779 398 
Q 353 888 353 1747 
Q 353 2609 779 3096 
Q 1206 3584 1959 3584 
z
" transform="scale(0.015625)"/>
       <path id="DejaVuSans-66" d="M 2375 4863 
L 2375 4384 
L 1825 4384 
Q 1516 4384 1395 4259 
Q 1275 4134 1275 3809 
L 1275 3500 
L 2222 3500 
L 2222 3053 
L 1275 3053 
L 1275 0 
L 697 0 
L 697 3053 
L 147 3053 
L 147 3500 
L 697 3500 
L 697 3744 
Q 697 4328 969 4595 
Q 1241 4863 1831 4863 
L 2375 4863 
z
" transform="scale(0.015625)"/>
       <path id="DejaVuSans-74" d="M 1172 4494 
L 1172 3500 
L 2356 3500 
L 2356 3053 
L 1172 3053 
L 1172 1153 
Q 1172 725 1289 603 
Q 1406 481 1766 481 
L 2356 481 
L 2356 0 
L 1766 0 
Q 1100 0 847 248 
Q 594 497 594 1153 
L 594 3053 
L 172 3053 
L 172 3500 
L 594 3500 
L 594 4494 
L 1172 4494 
z
" transform="scale(0.015625)"/>
       <path id="DejaVuSans-20" transform="scale(0.015625)"/>
       <path id="DejaVuSans-47" d="M 3809 666 
L 3809 1919 
L 2778 1919 
L 2778 2438 
L 4434 2438 
L 4434 434 
Q 4069 175 3628 42 
Q 3188 -91 2688 -91 
Q 1594 -91 976 548 
Q 359 1188 359 2328 
Q 359 3472 976 4111 
Q 1594 4750 2688 4750 
Q 3144 4750 3555 4637 
Q 3966 4525 4313 4306 
L 4313 3634 
Q 3963 3931 3569 4081 
Q 3175 4231 2741 4231 
Q 1884 4231 1454 3753 
Q 1025 3275 1025 2328 
Q 1025 1384 1454 906 
Q 1884 428 2741 428 
Q 3075 428 3337 486 
Q 3600 544 3809 666 
z
" transform="scale(0.015625)"/>
       <path id="DejaVuSans-61" d="M 2194 1759 
Q 1497 1759 1228 1600 
Q 959 1441 959 1056 
Q 959 750 1161 570 
Q 1363 391 1709 391 
Q 2188 391 2477 730 
Q 2766 1069 2766 1631 
L 2766 1759 
L 2194 1759 
z
M 3341 1997 
L 3341 0 
L 2766 0 
L 2766 531 
Q 2569 213 2275 61 
Q 1981 -91 1556 -91 
Q 1019 -91 701 211 
Q 384 513 384 1019 
Q 384 1609 779 1909 
Q 1175 2209 1959 2209 
L 2766 2209 
L 2766 2266 
Q 2766 2663 2505 2880 
Q 2244 3097 1772 3097 
Q 1472 3097 1187 3025 
Q 903 2953 641 2809 
L 641 3341 
Q 956 3463 1253 3523 
Q 1550 3584 1831 3584 
Q 2591 3584 2966 3190 
Q 3341 2797 3341 1997 
z
" transform="scale(0.015625)"/>
       <path id="DejaVuSans-65" d="M 3597 1894 
L 3597 1613 
L 953 1613 
Q 991 1019 1311 708 
Q 1631 397 2203 397 
Q 2534 397 2845 478 
Q 3156 559 3463 722 
L 3463 178 
Q 3153 47 2828 -22 
Q 2503 -91 2169 -91 
Q 1331 -91 842 396 
Q 353 884 353 1716 
Q 353 2575 817 3079 
Q 1281 3584 2069 3584 
Q 2775 3584 3186 3129 
Q 3597 2675 3597 1894 
z
M 3022 2063 
Q 3016 2534 2758 2815 
Q 2500 3097 2075 3097 
Q 1594 3097 1305 2825 
Q 1016 2553 972 2059 
L 3022 2063 
z
" transform="scale(0.015625)"/>
       <path id="DejaVuSans-73" d="M 2834 3397 
L 2834 2853 
Q 2591 2978 2328 3040 
Q 2066 3103 1784 3103 
Q 1356 3103 1142 2972 
Q 928 2841 928 2578 
Q 928 2378 1081 2264 
Q 1234 2150 1697 2047 
L 1894 2003 
Q 2506 1872 2764 1633 
Q 3022 1394 3022 966 
Q 3022 478 2636 193 
Q 2250 -91 1575 -91 
Q 1294 -91 989 -36 
Q 684 19 347 128 
L 347 722 
Q 666 556 975 473 
Q 1284 391 1588 391 
Q 1994 391 2212 530 
Q 2431 669 2431 922 
Q 2431 1156 2273 1281 
Q 2116 1406 1581 1522 
L 1381 1569 
Q 847 1681 609 1914 
Q 372 2147 372 2553 
Q 372 3047 722 3315 
Q 1072 3584 1716 3584 
Q 2034 3584 2315 3537 
Q 2597 3491 2834 3397 
z
" transform="scale(0.015625)"/>
       <path id="DejaVuSans-4c" d="M 628 4666 
L 1259 4666 
L 1259 531 
L 3531 531 
L 3531 0 
L 628 0 
L 628 4666 
z
" transform="scale(0.015625)"/>
      </defs>
      <use xlink:href="#DejaVuSans-53"/>
      <use xlink:href="#DejaVuSans-6f" transform="translate(63.476562 0)"/>
      <use xlink:href="#DejaVuSans-66" transform="translate(124.658203 0)"/>
      <use xlink:href="#DejaVuSans-74" transform="translate(158.113281 0)"/>
      <use xlink:href="#DejaVuSans-20" transform="translate(197.322266 0)"/>
      <use xlink:href="#DejaVuSans-47" transform="translate(229.109375 0)"/>
      <use xlink:href="#DejaVuSans-61" transform="translate(306.599609 0)"/>
      <use xlink:href="#DejaVuSans-74" transform="translate(367.878906 0)"/>
      <use xlink:href="#DejaVuSans-65" transform="translate(407.087891 0)"/>
      <use xlink:href="#DejaVuSans-73" transform="translate(468.611328 0)"/>
      <use xlink:href="#DejaVuSans-20" transform="translate(520.710938 0)"/>
      <use xlink:href="#DejaVuSans-4c" transform="translate(552.498047 0)"/>
      <use xlink:href="#DejaVuSans-6f" transform="translate(606.460938 0)"/>
      <use xlink:href="#DejaVuSans-73" transform="translate(667.642578 0)"/>
      <use xlink:href="#DejaVuSans-73" transform="translate(719.742188 0)"/>
     </g>
    </g>
    <g id="line2d_32">
     <path d="M 590.817188 69.376563 
L 600.817188 69.376563 
L 610.817188 69.376563 
" style="fill: none; stroke-dasharray: 7.4,3.2; stroke-dashoffset: 0; stroke: #e74c3c; stroke-opacity: 0.9; stroke-width: 2"/>
    </g>
    <g id="text_19">
     <!-- Hard Gates Loss -->
     <g style="fill: #262626" transform="translate(618.817188 72.876563) scale(0.1 -0.1)">
      <defs>
       <path id="DejaVuSans-48" d="M 628 4666 
L 1259 4666 
L 1259 2753 
L 3553 2753 
L 3553 4666 
L 4184 4666 
L 4184 0 
L 3553 0 
L 3553 2222 
L 1259 2222 
L 1259 0 
L 628 0 
L 628 4666 
z
" transform="scale(0.015625)"/>
       <path id="DejaVuSans-72" d="M 2631 2963 
Q 2534 3019 2420 3045 
Q 2306 3072 2169 3072 
Q 1681 3072 1420 2755 
Q 1159 2438 1159 1844 
L 1159 0 
L 581 0 
L 581 3500 
L 1159 3500 
L 1159 2956 
Q 1341 3275 1631 3429 
Q 1922 3584 2338 3584 
Q 2397 3584 2469 3576 
Q 2541 3569 2628 3553 
L 2631 2963 
z
" transform="scale(0.015625)"/>
       <path id="DejaVuSans-64" d="M 2906 2969 
L 2906 4863 
L 3481 4863 
L 3481 0 
L 2906 0 
L 2906 525 
Q 2725 213 2448 61 
Q 2172 -91 1784 -91 
Q 1150 -91 751 415 
Q 353 922 353 1747 
Q 353 2572 751 3078 
Q 1150 3584 1784 3584 
Q 2172 3584 2448 3432 
Q 2725 3281 2906 2969 
z
M 947 1747 
Q 947 1113 1208 752 
Q 1469 391 1925 391 
Q 2381 391 2643 752 
Q 2906 1113 2906 1747 
Q 2906 2381 2643 2742 
Q 2381 3103 1925 3103 
Q 1469 3103 1208 2742 
Q 947 2381 947 1747 
z
" transform="scale(0.015625)"/>
      </defs>
      <use xlink:href="#DejaVuSans-48"/>
      <use xlink:href="#DejaVuSans-61" transform="translate(75.195312 0)"/>
      <use xlink:href="#DejaVuSans-72" transform="translate(136.474609 0)"/>
      <use xlink:href="#DejaVuSans-64" transform="translate(175.837891 0)"/>
      <use xlink:href="#DejaVuSans-20" transform="translate(239.314453 0)"/>
      <use xlink:href="#DejaVuSans-47" transform="translate(271.101562 0)"/>
      <use xlink:href="#DejaVuSans-61" transform="translate(348.591797 0)"/>
      <use xlink:href="#DejaVuSans-74" transform="translate(409.871094 0)"/>
      <use xlink:href="#DejaVuSans-65" transform="translate(449.080078 0)"/>
      <use xlink:href="#DejaVuSans-73" transform="translate(510.603516 0)"/>
      <use xlink:href="#DejaVuSans-20" transform="translate(562.703125 0)"/>
      <use xlink:href="#DejaVuSans-4c" transform="translate(594.490234 0)"/>
      <use xlink:href="#DejaVuSans-6f" transform="translate(648.453125 0)"/>
      <use xlink:href="#DejaVuSans-73" transform="translate(709.634766 0)"/>
      <use xlink:href="#DejaVuSans-73" transform="translate(761.734375 0)"/>
     </g>
    </g>
   </g>
  </g>
 </g>
 <defs>
  <clipPath id="pd94ee131d5">
   <rect x="50.25" y="41.6" width="658.95" height="349.06"/>
  </clipPath>
 </defs>
</svg>
